<svg xmlns="http://www.w3.org/2000/svg" width="200" height="44" viewBox="0 0 200 44">
    <g fill="#000" fill-rule="evenodd">
        <path d="M171.98 39.217c-.27.324-.61.565-1.022.724-.41.16-.83.239-1.255.239-.48 0-.918-.084-1.314-.252a3.096 3.096 0 0 1-1.026-.697 3.116 3.116 0 0 1-.67-1.067 3.734 3.734 0 0 1-.24-1.35c0-.486.08-.936.24-1.35.158-.414.382-.77.67-1.066.288-.298.631-.53 1.03-.698a3.34 3.34 0 0 1 1.31-.252c.396 0 .781.067 1.156.203.375.135.695.34.959.616l-.126.144a2.183 2.183 0 0 0-.428-.346 2.89 2.89 0 0 0-1.04-.392 3.175 3.175 0 0 0-.521-.045c-.456 0-.872.082-1.247.248a2.875 2.875 0 0 0-.963.679 3.081 3.081 0 0 0-.62 1.013 3.48 3.48 0 0 0-.221 1.246c0 .444.072.86.216 1.246.144.388.35.725.616 1.013.267.288.588.514.963.68.375.165.794.247 1.256.247a3.17 3.17 0 0 0 1.174-.23c.387-.153.707-.382.959-.688l.144.135zm5.673-1.642c0 .378-.061.724-.183 1.039a2.367 2.367 0 0 1-.52.814 2.348 2.348 0 0 1-.803.53 2.705 2.705 0 0 1-1.024.189c-.371 0-.71-.063-1.019-.189a2.36 2.36 0 0 1-.798-.53 2.367 2.367 0 0 1-.52-.814 2.845 2.845 0 0 1-.183-1.04c0-.378.061-.722.183-1.034a2.323 2.323 0 0 1 1.318-1.328 2.665 2.665 0 0 1 1.019-.189c.37 0 .712.063 1.024.189.311.126.579.301.803.525.224.224.397.492.52.803.122.312.183.656.183 1.035zm-.23 0c0-.323-.053-.627-.158-.914a2.14 2.14 0 0 0-1.181-1.255 2.4 2.4 0 0 0-.961-.184c-.357 0-.676.062-.956.184a2.152 2.152 0 0 0-1.176 1.255 2.638 2.638 0 0 0-.157.913c0 .33.052.637.157.925.105.287.257.537.457.75.2.214.44.383.72.51.28.126.598.188.955.188s.677-.062.96-.189c.284-.126.525-.295.725-.509.2-.213.352-.463.457-.75.105-.288.157-.595.157-.925zM179.004 40v-7.938h.231V40h-.23zm2.003 0v-7.938h.231V40h-.23zm1.814-2.468c0 .295.044.585.131.872.088.287.221.544.4.772.178.227.404.411.677.551.273.14.595.21.966.21.378 0 .714-.075 1.008-.226.294-.15.55-.369.766-.656l.168.147a2.448 2.448 0 0 1-.834.704 2.424 2.424 0 0 1-1.108.241c-.357 0-.683-.065-.977-.194a2.27 2.27 0 0 1-.761-.541 2.398 2.398 0 0 1-.494-.83 3.088 3.088 0 0 1-.173-1.05c0-.364.06-.7.179-1.007.119-.309.281-.574.488-.798.207-.225.45-.398.73-.52.28-.123.58-.184.903-.184.378 0 .707.066.987.2a2.075 2.075 0 0 1 1.113 1.265c.09.276.136.558.136.845v.2h-4.305zm4.085-.199a2.495 2.495 0 0 0-.163-.861 2.048 2.048 0 0 0-.415-.667 1.803 1.803 0 0 0-.63-.43 2.12 2.12 0 0 0-.819-.153c-.364 0-.675.076-.934.226a2.09 2.09 0 0 0-.636.557 2.35 2.35 0 0 0-.362.693 2.131 2.131 0 0 0-.115.635h4.074zm5.772 1.365h-.031a2.088 2.088 0 0 1-.368.625 2.408 2.408 0 0 1-.514.451 2.268 2.268 0 0 1-.614.279c-.221.063-.447.094-.678.094-.35 0-.673-.065-.971-.194a2.293 2.293 0 0 1-.766-.536 2.438 2.438 0 0 1-.5-.808 2.816 2.816 0 0 1-.178-1.014c0-.364.06-.703.179-1.018.119-.315.285-.588.499-.819.213-.231.468-.411.766-.54.298-.13.621-.195.971-.195.462 0 .887.122 1.276.367.389.246.688.61.898 1.093h.031V35.17h.231v4.557c0 .385-.04.752-.12 1.103-.081.35-.214.657-.4.924-.185.266-.43.477-.734.635-.305.157-.681.236-1.13.236-.454 0-.86-.079-1.217-.236a2.592 2.592 0 0 1-.914-.667l.158-.157c.266.3.568.52.908.656.34.136.695.205 1.066.205.42 0 .77-.077 1.05-.232.28-.154.5-.356.661-.608.161-.253.275-.541.341-.867.067-.325.1-.663.1-1.013v-1.008zm-4.389-1.102c0 .315.051.615.153.903.101.287.246.538.435.755a2.053 2.053 0 0 0 1.596.704c.322 0 .618-.063.888-.189.269-.126.502-.297.698-.514a2.49 2.49 0 0 0 .63-1.67 2.49 2.49 0 0 0-.168-.913 2.374 2.374 0 0 0-.462-.751 2.205 2.205 0 0 0-.698-.51 2.069 2.069 0 0 0-.888-.189 2.07 2.07 0 0 0-1.596.715 2.312 2.312 0 0 0-.435.756 2.688 2.688 0 0 0-.153.903zm6.203-.063c0 .294.044.584.132.871.087.287.22.544.399.772.178.227.404.411.677.551.273.14.595.21.966.21.378 0 .714-.075 1.008-.226.294-.15.55-.369.766-.656l.168.147a2.448 2.448 0 0 1-.835.704 2.424 2.424 0 0 1-1.107.241c-.357 0-.683-.065-.977-.194a2.27 2.27 0 0 1-.761-.541 2.398 2.398 0 0 1-.494-.83 3.088 3.088 0 0 1-.173-1.05c0-.364.06-.7.179-1.007.119-.309.281-.574.488-.798.207-.225.45-.398.73-.52.28-.123.58-.184.903-.184.378 0 .707.066.987.2a2.075 2.075 0 0 1 1.113 1.265c.09.276.136.558.136.845v.2h-4.305zm4.085-.2a2.495 2.495 0 0 0-.163-.861 2.048 2.048 0 0 0-.415-.667 1.803 1.803 0 0 0-.63-.43 2.12 2.12 0 0 0-.819-.153c-.364 0-.675.076-.934.226a2.09 2.09 0 0 0-.635.557 2.35 2.35 0 0 0-.363.693 2.131 2.131 0 0 0-.115.635h4.074z"/>
        <path fill-rule="nonzero" d="M24.975 16.09a5.715 5.715 0 0 0-1.487-1.74 5.503 5.503 0 0 0-2.11-.95 6.481 6.481 0 0 0-2.705 0c-.865.163-1.704.462-2.461.95-.704.436-1.353 1.006-1.84 1.686a7.468 7.468 0 0 0-1.109 2.228 6.108 6.108 0 0 0-.216 2.527l12.794-2.364a8.116 8.116 0 0 0-.866-2.337zM40 10.155V36h14.254c4.734-8.099 2.164-18.575-5.76-23.412A15.98 15.98 0 0 0 40 10.155z"/>
        <path fill-rule="nonzero" d="M36.534 39.298V8.455C29.636-.187 17.059-1.573 8.457 5.384c-8.6 6.957-9.953 19.539-3.056 28.18 5.87 7.337 16.04 9.593 24.425 5.408a16.668 16.668 0 0 0 21.53.435H36.534v-.11zm-8.548-8.886a12.44 12.44 0 0 1-5.004 2.038 12.898 12.898 0 0 1-4.679.027 10.756 10.756 0 0 1-4.003-1.63c-1.217-.843-2.245-1.903-3.002-3.153-.866-1.358-1.434-2.907-1.705-4.483a12.925 12.925 0 0 1 0-4.783c.271-1.468.839-2.854 1.677-4.076a11.256 11.256 0 0 1 3.111-2.99 12.532 12.532 0 0 1 8.71-1.684 8.816 8.816 0 0 1 3.678 1.63 10.09 10.09 0 0 1 2.705 3.152 13.51 13.51 0 0 1 1.569 4.538l.135.734c.054.245.081.49.081.734l-17.121 3.152c.189.87.568 1.712 1.082 2.446a7.008 7.008 0 0 0 1.893 1.793c1.542.979 3.408 1.332 5.193.979a7.43 7.43 0 0 0 3.598-1.658 8.046 8.046 0 0 0 2.082-2.772l3.435 1.875a10.833 10.833 0 0 1-3.435 4.13z"/>
        <path d="M65.975 15.256h8.442v1.98h-6.174v3.24h5.85v1.908h-5.85v3.6h6.498V28h-8.766V15.256zm10.372 4.104H78.4v1.386h.036c.192-.432.525-.813 1-1.143.473-.33 1.034-.495 1.682-.495.564 0 1.047.099 1.45.297.401.198.731.459.99.783.257.324.446.696.566 1.116.12.42.18.852.18 1.296V28h-2.16v-4.788a6.13 6.13 0 0 0-.054-.792 2.138 2.138 0 0 0-.234-.747 1.552 1.552 0 0 0-.495-.549c-.21-.144-.489-.216-.837-.216s-.648.069-.9.207a1.911 1.911 0 0 0-.62.531 2.35 2.35 0 0 0-.37.747 2.98 2.98 0 0 0-.126.855V28h-2.16v-8.64zm18.76 0v7.866c0 .78-.096 1.485-.288 2.115a4.095 4.095 0 0 1-.89 1.602 4.017 4.017 0 0 1-1.522 1.017c-.612.24-1.338.36-2.178.36a7.642 7.642 0 0 1-2.259-.36 6.93 6.93 0 0 1-1.089-.45 5.25 5.25 0 0 1-.936-.612l1.242-1.674c.42.396.894.699 1.422.909.528.21 1.062.315 1.602.315.516 0 .951-.075 1.305-.225.354-.15.636-.357.846-.621.21-.264.36-.576.45-.936.09-.36.135-.756.135-1.188v-.63h-.036c-.312.42-.71.741-1.197.963a3.876 3.876 0 0 1-1.629.333c-.648 0-1.236-.12-1.764-.36a3.999 3.999 0 0 1-1.34-.972 4.452 4.452 0 0 1-.856-1.431 4.922 4.922 0 0 1-.306-1.737c0-.624.1-1.212.297-1.764.198-.552.48-1.032.846-1.44.366-.408.81-.732 1.332-.972s1.107-.36 1.755-.36c.612 0 1.182.126 1.71.378s.948.642 1.26 1.17h.036V19.36h2.052zM90.5 20.872c-.396 0-.747.072-1.053.216a2.279 2.279 0 0 0-.774.585 2.63 2.63 0 0 0-.486.873 3.34 3.34 0 0 0-.17 1.08c0 .348.056.684.17 1.008.114.324.276.615.486.873.21.258.468.465.774.621.306.156.651.234 1.035.234a2.48 2.48 0 0 0 1.071-.225c.318-.15.588-.351.81-.603.222-.252.393-.543.513-.873a3.134 3.134 0 0 0 0-2.097 2.685 2.685 0 0 0-.513-.882 2.388 2.388 0 0 0-.8-.594 2.506 2.506 0 0 0-1.063-.216zm12.064 6.03h-.054c-.216.384-.564.699-1.044.945-.48.246-1.026.369-1.638.369a4.7 4.7 0 0 1-1.089-.135 3.241 3.241 0 0 1-1.044-.45 2.616 2.616 0 0 1-.792-.828c-.21-.342-.315-.765-.315-1.269 0-.648.183-1.164.55-1.548.365-.384.836-.678 1.412-.882a7.965 7.965 0 0 1 1.917-.405 22.017 22.017 0 0 1 2.061-.099v-.216c0-.54-.195-.939-.585-1.197-.39-.258-.855-.387-1.395-.387-.456 0-.894.096-1.314.288-.42.192-.768.426-1.044.702l-1.116-1.314a4.874 4.874 0 0 1 1.701-1.026 5.798 5.798 0 0 1 1.953-.342c.768 0 1.401.108 1.9.324.497.216.89.498 1.178.846.288.348.49.738.603 1.17.114.432.171.864.171 1.296V28h-2.016v-1.098zm-.036-2.844h-.486c-.348 0-.714.015-1.098.045-.384.03-.738.096-1.062.198a2.267 2.267 0 0 0-.81.432c-.216.186-.324.441-.324.765a.92.92 0 0 0 .135.513c.09.138.207.249.351.333.144.084.306.144.486.18.18.036.36.054.54.054.744 0 1.308-.198 1.692-.594.384-.396.576-.936.576-1.62v-.306zm12.856-4.698v7.866c0 .78-.096 1.485-.288 2.115a4.095 4.095 0 0 1-.89 1.602 4.017 4.017 0 0 1-1.522 1.017c-.612.24-1.338.36-2.178.36a7.642 7.642 0 0 1-2.259-.36 6.93 6.93 0 0 1-1.089-.45 5.25 5.25 0 0 1-.936-.612l1.242-1.674c.42.396.894.699 1.422.909.528.21 1.062.315 1.602.315.516 0 .951-.075 1.305-.225.354-.15.636-.357.846-.621.21-.264.36-.576.45-.936.09-.36.135-.756.135-1.188v-.63h-.036c-.312.42-.71.741-1.197.963a3.876 3.876 0 0 1-1.629.333c-.648 0-1.236-.12-1.764-.36a3.999 3.999 0 0 1-1.34-.972 4.452 4.452 0 0 1-.856-1.431 4.922 4.922 0 0 1-.306-1.737c0-.624.1-1.212.297-1.764.198-.552.48-1.032.846-1.44.366-.408.81-.732 1.332-.972s1.107-.36 1.755-.36c.612 0 1.182.126 1.71.378s.948.642 1.26 1.17h.036V19.36h2.052zm-4.608 1.512c-.396 0-.747.072-1.053.216a2.279 2.279 0 0 0-.774.585 2.63 2.63 0 0 0-.486.873 3.34 3.34 0 0 0-.17 1.08c0 .348.056.684.17 1.008.114.324.276.615.486.873.21.258.468.465.774.621.306.156.651.234 1.035.234a2.48 2.48 0 0 0 1.071-.225c.318-.15.588-.351.81-.603.222-.252.393-.543.513-.873a3.134 3.134 0 0 0 0-2.097 2.685 2.685 0 0 0-.513-.882 2.388 2.388 0 0 0-.8-.594 2.506 2.506 0 0 0-1.063-.216zm12.784 1.944c0-.276-.039-.54-.117-.792a1.813 1.813 0 0 0-.369-.666 1.801 1.801 0 0 0-.639-.459 2.234 2.234 0 0 0-.909-.171c-.648 0-1.197.195-1.647.585-.45.39-.699.891-.747 1.503h4.428zm2.16.972v.288c0 .096-.006.192-.018.288h-6.57a2.14 2.14 0 0 0 .792 1.521c.228.186.486.333.774.441.288.108.588.162.9.162.54 0 .996-.099 1.368-.297.372-.198.678-.471.918-.819l1.44 1.152c-.852 1.152-2.088 1.728-3.708 1.728-.672 0-1.29-.105-1.854-.315a4.375 4.375 0 0 1-1.467-.891 4.016 4.016 0 0 1-.972-1.413c-.234-.558-.35-1.191-.35-1.899 0-.696.116-1.329.35-1.899.234-.57.555-1.056.963-1.458a4.308 4.308 0 0 1 1.45-.936 4.849 4.849 0 0 1 1.808-.333c.6 0 1.155.099 1.665.297.51.198.951.492 1.323.882s.663.876.873 1.458c.21.582.315 1.263.315 2.043zm11.902-4.68c.564 0 1.047.099 1.45.297.401.198.731.459.99.783.257.324.446.696.566 1.116.12.42.18.852.18 1.296V28h-2.16v-4.788a6.13 6.13 0 0 0-.054-.792 2.138 2.138 0 0 0-.234-.747 1.552 1.552 0 0 0-.495-.549c-.21-.144-.489-.216-.837-.216-.336 0-.624.072-.864.216-.24.144-.438.33-.594.558-.156.228-.27.483-.342.765a3.373 3.373 0 0 0-.108.837V28h-2.16v-5.22c0-.54-.129-.987-.387-1.341s-.663-.531-1.215-.531c-.324 0-.606.069-.846.207-.24.138-.435.315-.585.531-.15.216-.264.465-.342.747a3.193 3.193 0 0 0-.117.855V28h-2.16v-8.64h2.052v1.386h.036a2.56 2.56 0 0 1 .387-.612 3.02 3.02 0 0 1 .576-.522c.222-.156.477-.279.765-.369.288-.09.606-.135.954-.135.672 0 1.23.15 1.674.45.444.3.786.696 1.026 1.188a3.085 3.085 0 0 1 1.152-1.215c.48-.282 1.044-.423 1.692-.423zm11.29 3.708c0-.276-.039-.54-.117-.792a1.813 1.813 0 0 0-.369-.666 1.801 1.801 0 0 0-.639-.459 2.234 2.234 0 0 0-.909-.171c-.648 0-1.197.195-1.647.585-.45.39-.699.891-.747 1.503h4.428zm2.16.972v.288c0 .096-.006.192-.018.288h-6.57a2.14 2.14 0 0 0 .792 1.521c.228.186.486.333.774.441.288.108.588.162.9.162.54 0 .996-.099 1.368-.297.372-.198.678-.471.918-.819l1.44 1.152c-.852 1.152-2.088 1.728-3.708 1.728-.672 0-1.29-.105-1.854-.315a4.375 4.375 0 0 1-1.467-.891 4.016 4.016 0 0 1-.972-1.413c-.234-.558-.35-1.191-.35-1.899 0-.696.116-1.329.35-1.899.234-.57.555-1.056.963-1.458a4.308 4.308 0 0 1 1.45-.936 4.849 4.849 0 0 1 1.808-.333c.6 0 1.155.099 1.665.297.51.198.951.492 1.323.882s.663.876.873 1.458c.21.582.315 1.263.315 2.043zm1.588-4.428h2.052v1.386h.036c.192-.432.525-.813 1-1.143.473-.33 1.034-.495 1.682-.495.564 0 1.047.099 1.45.297.401.198.731.459.99.783.257.324.446.696.566 1.116.12.42.18.852.18 1.296V28h-2.16v-4.788a6.13 6.13 0 0 0-.054-.792 2.138 2.138 0 0 0-.234-.747 1.552 1.552 0 0 0-.495-.549c-.21-.144-.489-.216-.837-.216s-.648.069-.9.207a1.911 1.911 0 0 0-.62.531 2.35 2.35 0 0 0-.37.747 2.98 2.98 0 0 0-.126.855V28h-2.16v-8.64zm8.734 1.728V19.36h1.512v-2.502h2.124v2.502h2.16v1.728h-2.16v4.014c0 .384.07.702.207.954.138.252.447.378.927.378.144 0 .3-.015.468-.045.168-.03.318-.075.45-.135l.072 1.692c-.192.072-.42.129-.684.171a4.816 4.816 0 0 1-.756.063c-.576 0-1.044-.081-1.404-.243a2.129 2.129 0 0 1-.855-.666 2.466 2.466 0 0 1-.432-.972 5.651 5.651 0 0 1-.117-1.179v-4.032h-1.512zM172.667 28V15.256h.396V27.64h6.336V28h-6.732zm14.18-1.872c0 .312.015.645.045.999s.063.645.099.873h-.378a3.537 3.537 0 0 1-.054-.441 19.638 19.638 0 0 0-.045-.54 8.713 8.713 0 0 1-.036-.549 13.93 13.93 0 0 1-.01-.45h-.053c-.24.756-.654 1.317-1.242 1.683a3.514 3.514 0 0 1-2.89.405 2.859 2.859 0 0 1-.89-.432 2.177 2.177 0 0 1-.64-.738c-.161-.3-.242-.654-.242-1.062 0-.588.153-1.062.459-1.422a3.09 3.09 0 0 1 1.143-.837 5.133 5.133 0 0 1 1.467-.387c.522-.06.999-.09 1.43-.09h1.44v-.666c0-.924-.245-1.599-.737-2.025-.492-.426-1.134-.639-1.926-.639-.492 0-.951.09-1.377.27-.426.18-.807.42-1.143.72l-.216-.306a4.022 4.022 0 0 1 1.305-.765 4.228 4.228 0 0 1 1.43-.261c.949 0 1.696.243 2.242.729s.819 1.251.819 2.295v3.636zm-.396-2.646h-1.278c-.456 0-.936.027-1.44.081a5.211 5.211 0 0 0-1.386.333c-.42.168-.765.408-1.035.72-.27.312-.405.732-.405 1.26 0 .384.075.705.225.963.15.258.342.465.576.621.234.156.492.27.774.342.282.072.549.108.8.108.613 0 1.123-.114 1.53-.342.409-.228.736-.519.982-.873s.417-.744.513-1.17a5.68 5.68 0 0 0 .144-1.251v-.792zm3.974-1.512c.36-.828.873-1.452 1.539-1.872a4.02 4.02 0 0 1 2.187-.63c.612 0 1.173.111 1.683.333.51.222.948.528 1.314.918.366.39.648.855.846 1.395.198.54.297 1.128.297 1.764 0 .624-.102 1.203-.306 1.737a4.18 4.18 0 0 1-.855 1.386 3.93 3.93 0 0 1-1.314.918 4.126 4.126 0 0 1-1.665.333c-.396 0-.783-.054-1.161-.162a3.888 3.888 0 0 1-1.053-.477 4.128 4.128 0 0 1-.882-.774 3.58 3.58 0 0 1-.63-1.071h-.054V28h-.396V14.392h.396v7.578h.054zm7.47 1.908c0-.54-.087-1.056-.261-1.548a3.963 3.963 0 0 0-.747-1.296 3.55 3.55 0 0 0-2.736-1.224c-.552 0-1.06.108-1.521.324a3.78 3.78 0 0 0-1.197.873c-.336.366-.6.795-.792 1.287a4.269 4.269 0 0 0-.288 1.566c0 .552.096 1.074.288 1.566.192.492.456.921.792 1.287a3.78 3.78 0 0 0 1.197.873c.462.216.969.324 1.52.324.577 0 1.096-.108 1.558-.324a3.577 3.577 0 0 0 1.179-.873 3.86 3.86 0 0 0 .747-1.287 4.608 4.608 0 0 0 .26-1.548zM123 36.06c0 .301-.036.582-.109.844a2.105 2.105 0 0 1-.313.676 1.48 1.48 0 0 1-.509.447 1.456 1.456 0 0 1-.697.163.773.773 0 0 1-.522-.176c-.136-.117-.187-.306-.154-.567h-.017a1.8 1.8 0 0 1-.17.258 1.25 1.25 0 0 1-.247.238c-.095.07-.202.128-.321.176-.12.047-.25.07-.389.07a.934.934 0 0 1-.43-.091.896.896 0 0 1-.467-.576 1.436 1.436 0 0 1-.054-.393c0-.244.039-.498.117-.76.077-.26.189-.5.333-.717.145-.217.32-.395.526-.534.206-.14.434-.21.685-.21.256 0 .458.069.605.205a.866.866 0 0 1 .263.556h.033l.167-.61h.176l-.568 1.979a2.574 2.574 0 0 0-.058.258 1.427 1.427 0 0 0-.025.242c0 .179.05.304.15.376a.61.61 0 0 0 .367.109c.256 0 .476-.056.66-.167a1.37 1.37 0 0 0 .45-.443c.117-.183.204-.392.26-.626.055-.234.083-.476.083-.726 0-.35-.068-.675-.205-.973a2.372 2.372 0 0 0-.567-.776 2.618 2.618 0 0 0-.856-.513 3.035 3.035 0 0 0-1.069-.184c-.423 0-.81.08-1.164.242a2.88 2.88 0 0 0-.914.651 3.032 3.032 0 0 0-.818 2.054c0 .406.07.789.213 1.148a2.816 2.816 0 0 0 1.532 1.582c.361.155.759.233 1.193.233.479 0 .923-.104 1.332-.313.409-.209.75-.474 1.022-.797l.125.108c-.3.357-.662.64-1.085.852a3.073 3.073 0 0 1-1.394.317c-.467 0-.893-.082-1.277-.246a2.963 2.963 0 0 1-1.62-1.665 3.272 3.272 0 0 1-.225-1.22 3.12 3.12 0 0 1 .893-2.207c.278-.281.604-.503.977-.664a3.014 3.014 0 0 1 1.21-.242c.418 0 .802.065 1.152.196.351.131.654.313.91.547.256.234.455.51.597.83.142.32.213.667.213 1.04zm-1.978-.141c0-.111-.016-.218-.046-.321a.806.806 0 0 0-.138-.272.637.637 0 0 0-.234-.183.799.799 0 0 0-.342-.067c-.234 0-.443.067-.626.2a1.755 1.755 0 0 0-.463.505 2.565 2.565 0 0 0-.288.668c-.067.242-.1.472-.1.689 0 .25.065.46.196.63.13.17.335.255.613.255.234 0 .44-.082.618-.247.178-.164.327-.359.446-.584.12-.225.21-.456.272-.693.061-.236.092-.43.092-.58zM126.412 40v-7.08h4.12v.2h-3.91v3.11h3.68v.2h-3.68v3.37h4.07v.2h-4.28zm9.136-3.496c.14-.477.378-.842.714-1.098a1.842 1.842 0 0 1 1.145-.383c.322 0 .593.06.814.178.22.12.395.277.525.473.13.196.222.416.278.662.056.245.084.493.084.745V40h-.231v-2.898c0-.196-.023-.406-.068-.63a1.857 1.857 0 0 0-.237-.609 1.441 1.441 0 0 0-.451-.457c-.189-.122-.427-.184-.714-.184-.252 0-.488.055-.709.163-.22.109-.413.264-.577.468-.165.203-.296.45-.394.74-.098.29-.147.621-.147.992V40h-.231v-2.898c0-.196-.02-.406-.058-.63a1.827 1.827 0 0 0-.215-.609 1.356 1.356 0 0 0-.436-.457c-.185-.122-.421-.184-.708-.184-.253 0-.489.055-.71.163-.22.109-.412.264-.577.468-.164.203-.294.45-.388.74-.095.29-.142.621-.142.992V40h-.231v-3.612c0-.077-.002-.171-.005-.283l-.01-.342a9.143 9.143 0 0 0-.037-.593h.23c.007.07.013.157.016.262a72.085 72.085 0 0 1 .026 1.008h.021c.07-.224.168-.423.294-.598.127-.175.268-.324.426-.446a1.75 1.75 0 0 1 1.087-.373c.252 0 .47.038.656.115.185.078.341.182.467.316.126.133.227.288.304.467.077.178.133.372.168.583h.022zm4.98 1.029c0 .294.044.584.131.871.088.287.22.544.4.772.178.227.403.411.677.551.273.14.594.21.966.21.378 0 .713-.075 1.007-.226.295-.15.55-.369.767-.656l.168.147a2.448 2.448 0 0 1-.835.704 2.424 2.424 0 0 1-1.107.241c-.358 0-.683-.065-.977-.194a2.27 2.27 0 0 1-.761-.541 2.398 2.398 0 0 1-.494-.83 3.088 3.088 0 0 1-.173-1.05c0-.364.06-.7.179-1.007.119-.309.281-.574.488-.798.206-.225.45-.398.73-.52.28-.123.58-.184.903-.184.378 0 .706.066.986.2a2.075 2.075 0 0 1 1.113 1.265c.091.276.137.558.137.845v.2h-4.305zm4.085-.2a2.495 2.495 0 0 0-.163-.861 2.048 2.048 0 0 0-.415-.667 1.803 1.803 0 0 0-.63-.43 2.12 2.12 0 0 0-.819-.153c-.364 0-.675.076-.935.226a2.09 2.09 0 0 0-.635.557 2.35 2.35 0 0 0-.362.693 2.131 2.131 0 0 0-.115.635h4.074zm1.745-.892c.14-.505.364-.867.672-1.087.308-.22.64-.331.998-.331h.094c.028 0 .06.003.094.01v.2a.326.326 0 0 0-.078-.01h-.058c-.308 0-.57.068-.788.204a1.7 1.7 0 0 0-.535.536 2.46 2.46 0 0 0-.31.735c-.066.27-.1.537-.1.803V40h-.23v-3.612c0-.077-.002-.171-.006-.283l-.01-.342a9.143 9.143 0 0 0-.037-.593h.231c.007.07.012.157.016.262a72.085 72.085 0 0 1 .026 1.008h.021zm5.305 2.299c0 .217-.042.411-.126.583a1.304 1.304 0 0 1-.341.435c-.144.12-.31.21-.499.273a1.914 1.914 0 0 1-.609.095c-.357 0-.68-.068-.971-.205a1.818 1.818 0 0 1-.72-.603l.19-.127c.35.49.853.735 1.512.735.154 0 .31-.024.467-.073.157-.049.3-.122.43-.22.13-.099.235-.221.315-.368.08-.147.121-.315.121-.504 0-.224-.05-.406-.152-.546a1.143 1.143 0 0 0-.383-.336 2.457 2.457 0 0 0-.51-.205c-.185-.052-.358-.1-.52-.142a5.439 5.439 0 0 1-.493-.162 1.468 1.468 0 0 1-.404-.231 1.005 1.005 0 0 1-.273-.352c-.067-.14-.1-.315-.1-.525 0-.21.042-.392.126-.546.084-.154.196-.282.336-.383.14-.102.3-.179.478-.231.178-.053.358-.079.54-.079.659 0 1.152.234 1.481.703l-.2.116a1.587 1.587 0 0 0-.546-.467 1.629 1.629 0 0 0-.735-.153c-.133 0-.272.018-.42.053a1.262 1.262 0 0 0-.404.173.916.916 0 0 0-.425.803c0 .21.033.378.1.505.066.126.159.227.278.304.119.077.262.142.43.194.169.053.354.103.557.153.189.049.373.106.551.173.179.066.336.148.473.247.136.098.245.22.325.367.08.147.121.329.121.546zm5.798-1.166c0 .379-.06.725-.183 1.04a2.367 2.367 0 0 1-.52.814 2.348 2.348 0 0 1-.803.53 2.705 2.705 0 0 1-1.024.189c-.371 0-.71-.063-1.019-.189a2.36 2.36 0 0 1-.798-.53 2.367 2.367 0 0 1-.52-.814 2.845 2.845 0 0 1-.183-1.04c0-.378.061-.722.184-1.034a2.323 2.323 0 0 1 1.317-1.328 2.665 2.665 0 0 1 1.019-.189c.371 0 .712.063 1.024.189.311.126.579.301.803.525.224.224.397.492.52.803.122.312.184.656.184 1.035zm-.23 0c0-.322-.053-.626-.158-.913a2.14 2.14 0 0 0-1.181-1.255 2.4 2.4 0 0 0-.961-.184c-.357 0-.675.062-.956.184a2.152 2.152 0 0 0-1.175 1.255 2.638 2.638 0 0 0-.158.913c0 .33.052.637.157.925.106.287.258.537.457.75.2.214.44.383.72.51.28.126.598.188.955.188s.677-.062.96-.189c.284-.126.526-.295.725-.509.2-.213.352-.463.457-.75.105-.288.157-.595.157-.925zm1.756-1.133c.07-.225.171-.424.304-.599a2.18 2.18 0 0 1 .452-.446c.168-.123.35-.215.546-.279.196-.063.398-.094.609-.094.336 0 .615.06.84.178.224.12.402.277.535.473.133.196.227.416.284.662.056.245.084.493.084.745V40h-.231v-2.898c0-.196-.022-.406-.064-.63a1.714 1.714 0 0 0-.236-.609 1.458 1.458 0 0 0-.467-.457c-.196-.122-.444-.184-.745-.184a1.766 1.766 0 0 0-1.36.63c-.172.204-.308.45-.41.74a3 3 0 0 0-.152.993V40h-.231v-3.612c0-.077-.002-.171-.005-.283l-.01-.342a9.143 9.143 0 0 0-.037-.593h.23c.007.07.013.157.016.262a72.085 72.085 0 0 1 .026 1.008h.022z"/>
    </g>
</svg>
