<svg id="Layer_4" data-name="Layer 4" xmlns="http://www.w3.org/2000/svg" viewBox="0 0 388.67 477.22"><defs><style>.cls-1{fill:#faa71a;}.cls-2{fill:#dc8627;opacity:0.52;}.cls-3{fill:#faae1c;}.cls-4{fill:#f99e1e;}.cls-5{fill:#da7d27;}.cls-6{fill:none;}.cls-7{fill:#ffcc2a;}.cls-8{fill:#ffd661;}.cls-9{fill:#f9a11b;}.cls-10{fill:#fdbc42;}.cls-11{fill:#fdbd42;}</style></defs><title>pot</title><g id="Layer_5" data-name="Layer 5"><path class="cls-1" d="M488.62,427.78c0-28.32-.78-60.71-15-84.11-32.27-53.1-103.54-83.61-177.28-83.67h-0.05c-73.74.06-145,30.56-177.28,83.67-14.22,23.4-15,55.79-15,84.11,0,92.6,86.07,167.67,192.28,167.77h0.05C402.55,595.45,488.62,520.37,488.62,427.78Z" transform="translate(-102.95 -118.33)"/><path class="cls-2" d="M297.28,414.33c89.26,0,164.45-19.41,187.24-45.85a88.78,88.78,0,0,0-9.94-24.82,141.19,141.19,0,0,0-26.31-31.44c-35.63-14.17-90-23.22-151-23.22s-115.37,9.06-151,23.22A141.19,141.19,0,0,0,120,343.67,88.78,88.78,0,0,0,110,368.48C132.83,394.93,208,414.33,297.28,414.33Z" transform="translate(-102.95 -118.33)"/></g><ellipse class="cls-3" cx="194.33" cy="205.33" rx="194.33" ry="62.67"/><ellipse class="cls-4" cx="196.05" cy="194" rx="143.33" ry="31.33"/><ellipse class="cls-5" cx="195.62" cy="194.16" rx="143.33" ry="31.33"/><path class="cls-6" d="M155.24,118.33V313h0.43c0,5.07,5.51,9.86,15.29,14.09a73,73,0,0,1,64.18-98.78,73,73,0,0,1,144.14.55,73,73,0,0,1,51.17,96.64c7.64-3.83,11.88-8.06,11.88-12.51V118.33H155.24Z" transform="translate(-102.95 -118.33)"/><path class="cls-6" d="M298.05,344.32H299l5.31,0c-1.13-1.47-2.22-3-3.22-4.49C300.13,341.33,299.13,342.85,298.05,344.32Z" transform="translate(-102.95 -118.33)"/><path class="cls-7" d="M270.71,332.69l-0.17.2h0l0,0h0l-0.21.22a16,16,0,0,1-22.61,0l-0.06-.06a15.65,15.65,0,0,1-5.76,8.65c8.73,0.83,17.91,1.48,27.44,1.92a52.41,52.41,0,0,0,6.77-5.59Z" transform="translate(-102.95 -118.33)"/><path class="cls-7" d="M217.07,323.77a16,16,0,1,1-8.7-30.7l-0.43-.41a16,16,0,0,1,0-22.61L208,270l-5.72-5.72a52.18,52.18,0,0,0-1.4,71.56c5.85,1.2,12.16,2.3,18.86,3.27A16,16,0,0,1,217.07,323.77Z" transform="translate(-102.95 -118.33)"/><path class="cls-7" d="M195.77,257.75l-8.2-8.2A73,73,0,0,0,171,327.08a120.43,120.43,0,0,0,15.69,5.36A61.41,61.41,0,0,1,195.77,257.75Z" transform="translate(-102.95 -118.33)"/><path class="cls-8" d="M195.77,257.75h0a61.13,61.13,0,0,1,38.4-17.59,73.37,73.37,0,0,1,1-11.86,72.7,72.7,0,0,0-47.56,21.25l8.2,8.2h0Z" transform="translate(-102.95 -118.33)"/><path class="cls-8" d="M294.57,327.43A61.24,61.24,0,0,1,283,344.12q7.42,0.18,15,.19c1.08-1.47,2.08-3,3-4.51A72.42,72.42,0,0,1,294.57,327.43Z" transform="translate(-102.95 -118.33)"/><path class="cls-8" d="M230.52,270.08c0.23,0.23.45,0.46,0.66,0.7a15.68,15.68,0,0,1,6-9.91,73,73,0,0,1-2.4-11.36,52,52,0,0,0-32.52,14.75h0L208,270h0A16,16,0,0,1,230.52,270.08Z" transform="translate(-102.95 -118.33)"/><path class="cls-8" d="M269.39,309.77c0.3,0.26.59,0.52,0.87,0.8a16,16,0,0,1,.45,22.12l5.36,5.36h0a51.93,51.93,0,0,0,14-26.79L290,311a72.69,72.69,0,0,1-12.91-4.43A15.91,15.91,0,0,1,269.39,309.77Z" transform="translate(-102.95 -118.33)"/><polygon class="cls-9" points="167.59 214.56 167.59 214.56 167.59 214.56 167.59 214.56"/><path class="cls-9" d="M247.63,333.08l0.06,0.06a16,16,0,0,0,22.61,0l0.21-.22L208,270l0,0h0l-0.06.06a16,16,0,0,0,0,22.61l0.43,0.41a16,16,0,1,0,8.7,30.7,16,16,0,0,0,2.67,15.33c7,1,14.37,1.9,22.12,2.63A15.65,15.65,0,0,0,247.63,333.08Z" transform="translate(-102.95 -118.33)"/><path class="cls-10" d="M270.26,310.57c-0.28-.28-0.57-0.55-0.87-0.8a15.91,15.91,0,0,0,7.72-3.25,73.08,73.08,0,0,1-39.9-45.64,15.68,15.68,0,0,0-6,9.91c-0.21-.24-0.43-0.47-0.66-0.7A16,16,0,0,0,208,270l0,0,62.53,62.9h0l0,0h0l0.17-.2A16,16,0,0,0,270.26,310.57Z" transform="translate(-102.95 -118.33)"/><path class="cls-9" d="M202.29,264.27h0l-6.51-6.51h0a61.41,61.41,0,0,0-9.13,74.69c4.36,1.2,9.13,2.33,14.24,3.38A52.18,52.18,0,0,1,202.29,264.27Z" transform="translate(-102.95 -118.33)"/><path class="cls-9" d="M276.07,338.06h0a52.41,52.41,0,0,1-6.77,5.59q6.31,0.29,12.81.46l-6-6h0Z" transform="translate(-102.95 -118.33)"/><path class="cls-11" d="M290.08,311.26a51.93,51.93,0,0,1-14,26.79h0l6,6,0.89,0a61.24,61.24,0,0,0,11.57-16.7A72.85,72.85,0,0,1,290.08,311.26Z" transform="translate(-102.95 -118.33)"/><path class="cls-11" d="M234.81,249.52a73.38,73.38,0,0,1-.63-9.36,61.13,61.13,0,0,0-38.4,17.59h0l6.51,6.51h0A52,52,0,0,1,234.81,249.52Z" transform="translate(-102.95 -118.33)"/><polygon class="cls-7" points="173.04 90.5 173.03 90.5 173.04 90.5 173.04 90.5"/><path class="cls-7" d="M234.18,240.16A73,73,0,0,0,290,311a73.36,73.36,0,0,1-.83-12.49,61.39,61.39,0,0,1-25.44-101.87l3.26,3.26-3.26-3.26-8.2-8.2a72.63,72.63,0,0,0-20.42,39.91A73.37,73.37,0,0,0,234.18,240.16Z" transform="translate(-102.95 -118.33)"/><path class="cls-7" d="M285,262.61a16,16,0,1,1-8.7-30.7l-0.43-.41a16,16,0,0,1,0-22.61l0.06-.06-5.72-5.72h0A52.19,52.19,0,0,0,290,288.79a73.08,73.08,0,0,1,1.54-7.44A16,16,0,0,1,285,262.61Z" transform="translate(-102.95 -118.33)"/><path class="cls-8" d="M350.38,196.78A61.08,61.08,0,0,1,366.92,227a73.2,73.2,0,0,1,12.36,1.86,73,73,0,0,0-123.73-40.46l8.2,8.2A61.39,61.39,0,0,1,350.38,196.78Z" transform="translate(-102.95 -118.33)"/><path class="cls-8" d="M270.26,203.11l5.72,5.72h0a16,16,0,0,1,22.51.09c0.23,0.23.45,0.46,0.66,0.7A16,16,0,1,1,330,217.68a16,16,0,0,1,20.45,10.09q3.38-.55,6.79-0.77A52.17,52.17,0,0,0,270.26,203.11Z" transform="translate(-102.95 -118.33)"/><path class="cls-9" d="M276,208.83h0l-0.06.06a16,16,0,0,0,0,22.61l0.43,0.41a16,16,0,1,0,8.7,30.7,16,16,0,0,0,6.48,18.74,72.62,72.62,0,0,1,19-33.16c0.76-.76,1.54-1.49,2.32-2.21L276,208.86Z" transform="translate(-102.95 -118.33)"/><path class="cls-10" d="M330,217.68a16,16,0,1,0-30.83-8.06c-0.21-.24-0.43-0.47-0.66-0.7a16,16,0,0,0-22.51-.09h0l0,0L312.85,246a72.59,72.59,0,0,1,37.58-18.21A16,16,0,0,0,330,217.68Z" transform="translate(-102.95 -118.33)"/><path class="cls-9" d="M270.63,276.53a52.18,52.18,0,0,1-.37-73.42L267,199.85l-3.26-3.26a61.39,61.39,0,0,0,25.44,101.87,73.36,73.36,0,0,1,.81-9.67A52,52,0,0,1,270.63,276.53Z" transform="translate(-102.95 -118.33)"/><path class="cls-11" d="M263.75,196.59l3.26,3.26,3.26,3.26h0a52.17,52.17,0,0,1,87,23.89,73.4,73.4,0,0,1,9.7,0A61.37,61.37,0,0,0,263.75,196.59Z" transform="translate(-102.95 -118.33)"/><path class="cls-7" d="M393.47,331.56h0l-0.21.22a16,16,0,0,1-22.61,0l-0.06-.06a15.89,15.89,0,0,1-6.5,9.19c12.47-1.39,23.88-3.17,33.9-5.26l-4.32-4.32Z" transform="translate(-102.95 -118.33)"/><path class="cls-7" d="M318.73,256.39h0l-8.2-8.2A73,73,0,0,0,290,288.79,74.08,74.08,0,0,0,290,311l0.05,0.31a72.35,72.35,0,0,0,11,28.54c1,1.53,2.09,3,3.22,4.49q7.93-.06,15.62-0.31c-0.34-.32-0.68-0.63-1-1A61.39,61.39,0,0,1,318.73,256.39Z" transform="translate(-102.95 -118.33)"/><path class="cls-7" d="M340,322.4a16,16,0,1,1-8.7-30.7l-0.43-.41a16,16,0,0,1,0-22.61l0.06-.06-5.72-5.72h0a52.17,52.17,0,0,0,9.11,80.45q7.4-.41,14.48-1A16,16,0,0,1,340,322.4Z" transform="translate(-102.95 -118.33)"/><polygon class="cls-7" points="228.02 150.29 228.02 150.29 228.02 150.29 228.02 150.29"/><path class="cls-8" d="M398.67,263.27a52.18,52.18,0,0,0-73.42-.37l5.72,5.72h0a16,16,0,0,1,22.51.09c0.23,0.23.45,0.46,0.66,0.7A16,16,0,1,1,385,277.48a16,16,0,1,1,7.39,30.93c0.3,0.26.59,0.52,0.87,0.8a16,16,0,0,1,.45,22.12l4.32,4.32,2.53-.54A52.17,52.17,0,0,0,398.67,263.27Z" transform="translate(-102.95 -118.33)"/><path class="cls-8" d="M413.75,248.19A72.6,72.6,0,0,0,366.92,227a73.4,73.4,0,0,0-9.7,0q-3.41.23-6.79,0.77A72.59,72.59,0,0,0,312.85,246c-0.78.72-1.56,1.45-2.32,2.21l8.2,8.2a61.39,61.39,0,0,1,95.91,75.11,98.72,98.72,0,0,0,15.81-6A73,73,0,0,0,413.75,248.19Z" transform="translate(-102.95 -118.33)"/><path class="cls-9" d="M370.59,331.72l0.06,0.06a16,16,0,0,0,22.61,0l0.21-.22-62.53-62.9,0,0h0l-0.06.06a16,16,0,0,0,0,22.61l0.43,0.41a16,16,0,1,0,8.7,30.7,16,16,0,0,0,8.81,20q7.85-.64,15.25-1.46A15.89,15.89,0,0,0,370.59,331.72Z" transform="translate(-102.95 -118.33)"/><path class="cls-10" d="M330.94,268.66l62.53,62.9h0l0.2-.23a16,16,0,0,0-.45-22.12c-0.28-.28-0.57-0.55-0.87-0.8A16,16,0,1,0,385,277.48a16,16,0,1,0-30.83-8.06c-0.21-.24-0.43-0.47-0.66-0.7a16,16,0,0,0-22.51-.09h0Z" transform="translate(-102.95 -118.33)"/><path class="cls-9" d="M325.25,262.9l-6.51-6.51a61.39,61.39,0,0,0,.18,86.63c0.33,0.33.68,0.64,1,1q7.34-.23,14.43-0.63A52.17,52.17,0,0,1,325.25,262.9Z" transform="translate(-102.95 -118.33)"/><path class="cls-11" d="M405.37,256.57a61.39,61.39,0,0,0-86.63-.18h0l6.51,6.51h0a52.17,52.17,0,0,1,75.27,72.2c5.11-1.12,9.83-2.33,14.12-3.61A61.4,61.4,0,0,0,405.37,256.57Z" transform="translate(-102.95 -118.33)"/></svg>