<svg id="Layer_1" data-name="Layer 1" xmlns="http://www.w3.org/2000/svg" viewBox="0 0 277 277"><defs><style>.cls-1{fill:#ffcc2a;}.cls-2{fill:#ffd661;}.cls-3{fill:#f9a11b;}.cls-4{fill:#fdbc42;}.cls-5{fill:#fdbd42;}</style></defs><title>coin</title><path class="cls-1" d="M208.56,298.06A138.5,138.5,0,0,0,404.44,493.93Z" transform="translate(-168 -257.5)"/><path class="cls-2" d="M404.44,493.93A138.5,138.5,0,0,0,208.56,298.06Z" transform="translate(-168 -257.5)"/><path class="cls-3" d="M247.22,337a30.33,30.33,0,0,0,0,42.9c0.27,0.27.54,0.52,0.82,0.78a30.33,30.33,0,1,0,16.5,58.27,30.34,30.34,0,1,0,58,17.67l0.11,0.12a30.33,30.33,0,0,0,42.9,0l0.46-.48L247.34,336.84Z" transform="translate(-168 -257.5)"/><path class="cls-4" d="M349.81,353.64a30.33,30.33,0,1,0-58.51-15.29c-0.4-.45-0.81-0.9-1.25-1.33a30.33,30.33,0,0,0-42.78-.11L365.95,456.27a30.33,30.33,0,0,0-.46-42.41c-0.53-.53-1.09-1-1.65-1.52A30.33,30.33,0,1,0,349.81,353.64Z" transform="translate(-168 -257.5)"/><path class="cls-3" d="M376.51,466a99,99,0,0,1-140-140l-12.36-12.36A116.49,116.49,0,0,0,388.88,478.37Z" transform="translate(-168 -257.5)"/><path class="cls-5" d="M236.49,326a99,99,0,0,1,140,140l12.36,12.36A116.49,116.49,0,0,0,224.13,313.62Z" transform="translate(-168 -257.5)"/></svg>