<svg xmlns="http://www.w3.org/2000/svg" xmlns:xlink="http://www.w3.org/1999/xlink" width="88" height="91" viewBox="0 0 88 91">
    <defs>
        <circle id="a" cx="44" cy="44" r="44"/>
        <filter id="b" width="103.4%" height="106.8%" x="-1.7%" y="-1.7%" filterUnits="objectBoundingBox">
            <feOffset dy="3" in="SourceAlpha" result="shadowOffsetOuter1"/>
            <feColorMatrix in="shadowOffsetOuter1" values="0 0 0 0 0 0 0 0 0 0.760784314 0 0 0 0 0.662745098 0 0 0 1 0"/>
        </filter>
    </defs>
    <g fill="none" fill-rule="evenodd">
        <mask id="c" fill="#fff">
            <use xlink:href="#a"/>
        </mask>
        <g fill-rule="nonzero">
            <use fill="#000" filter="url(#b)" xlink:href="#a"/>
            <use fill="#00F0CC" fill-rule="evenodd" xlink:href="#a"/>
        </g>
        <g fill="#FAFAFA" fill-rule="nonzero" mask="url(#c)">
            <path d="M44.812 19.788l3.347-.265L49.286 7.13s-1.525.198-3.082.43c-1.16.166-2.42.398-2.42.398l1.028 11.83zM37.124 21.91L31.49 11.37s-1.027.464-2.22 1.06c-1.193.597-2.452 1.26-2.452 1.26l6.926 9.809s.96-.563 1.955-1.027a25.815 25.815 0 0 1 1.425-.564M26.354 30.327l-10.538-6.694s-.663.927-1.392 1.988a90.898 90.898 0 0 0-1.657 2.452l11.797 5.203s.431-.829.961-1.723c.232-.398.829-1.226.829-1.226M7.432 39.34S7 40.434 6.603 41.594c-.397 1.16-.696 2.32-.696 2.32l15.31.198c.067-.63.133-1.226.265-1.823.1-.497.232-.96.398-1.424L7.432 39.34M69.169 35.728c-7.026-12.062-18.06-12.758-18.06-12.758S35.035 21.512 29.07 36.788c-4.474 11.4-3.81 27.605-3.049 39.535.597 9.245.928 15.873.928 15.873l36.22-1.856 1.823-21.937s.199-2.287.862-2.685c2.518-1.391 8.649-2.65 8.715-3.082.597-3.446.762-16.337-5.401-26.908zm-4.872 11.797a10.687 10.687 0 0 1-1.259 3.281 7.648 7.648 0 0 1-2.22 2.386 6.214 6.214 0 0 1-3.215.994 5.27 5.27 0 0 1-3.28-.928c-.597-.464-1.127-1.027-1.492-1.69a8.988 8.988 0 0 1-1.756 1.79 5.748 5.748 0 0 1-2.784 1.06c-.729.033-1.49-.066-2.154-.331-.63-.265-1.193-.63-1.656-1.127a5.16 5.16 0 0 1-1.06-1.723 5.74 5.74 0 0 1-.399-2.121 9.951 9.951 0 0 1 .63-4.043 9.116 9.116 0 0 1 1.889-2.982 8.808 8.808 0 0 1 2.651-1.89 7.21 7.21 0 0 1 2.85-.695c.497-.033 1.027.033 1.524.132.431.1.829.232 1.226.398a5 5 0 0 1 .928.497c.232.166.431.298.53.365l.067.066c.132.132.265.265.364.43.166.233.265.531.265.83 0 .43-.132.86-.43 1.192a1.67 1.67 0 0 1-1.193.597c-.365 0-.696-.1-.961-.332a32.177 32.177 0 0 1-.53-.43 2.484 2.484 0 0 0-.663-.332 4.449 4.449 0 0 0-1.16-.132 3.524 3.524 0 0 0-1.425.397c-.597.265-1.094.663-1.558 1.127a5.696 5.696 0 0 0-1.193 1.889 6.463 6.463 0 0 0-.397 2.75v.033c0 .332.066.663.199.995.099.265.231.497.43.695.166.166.332.299.53.398.166.066.365.133.564.1.795-.034 1.524-.431 2.12-1.26.597-.828 1.094-2.154 1.26-3.844 0-.397.166-.795.464-1.093.265-.299.63-.464 1.027-.464.464-.033.895.1 1.226.397.299.299.497.663.564 1.06v.034c.033.331.1.828.165 1.458.067.597.232 1.16.464 1.723.2.497.497.994.895 1.359.331.298.762.464 1.226.43.431-.032.862-.165 1.26-.364a3.633 3.633 0 0 0 1.192-1.16c.431-.662.763-1.425.928-2.22.265-1.127.365-2.253.299-3.413a7.874 7.874 0 0 0-.829-3.28 8.982 8.982 0 0 0-2.187-2.818 9.815 9.815 0 0 0-3.446-1.922 12.096 12.096 0 0 0-4.607-.596 12.99 12.99 0 0 0-5.335 1.26c-1.491.728-2.85 1.722-3.943 2.982a12.053 12.053 0 0 0-2.42 4.308 15.207 15.207 0 0 0-.729 5.302 9.448 9.448 0 0 0 .961 3.91 9.544 9.544 0 0 0 2.386 3.115 10.848 10.848 0 0 0 7.722 2.717c.762 0 1.557-.099 2.286-.198.365-.1.73-.133 1.094-.2.828-.099 1.557.498 1.657 1.293v.166c0 .497-.232.96-.63 1.226-.364.265-.729.464-1.16.563-.464.133-.96.232-1.425.299-.497.066-1.027.099-1.524.099a15.611 15.611 0 0 1-5.236-.696 14.681 14.681 0 0 1-4.672-2.452 13.92 13.92 0 0 1-3.414-4.076 12.644 12.644 0 0 1-1.425-5.6c-.1-2.254.2-4.507.928-6.628.696-1.989 1.757-3.844 3.148-5.402a15.081 15.081 0 0 1 5.037-3.711 17.271 17.271 0 0 1 6.562-1.525c1.922-.1 3.844.166 5.666.73a14.258 14.258 0 0 1 4.54 2.418 11.75 11.75 0 0 1 3.05 3.811 11.132 11.132 0 0 1 1.225 4.839c.133 1.259.033 2.518-.232 3.777z"/>
        </g>
    </g>
</svg>
