<svg width="26" height="30" viewBox="0 0 26 30" xmlns="http://www.w3.org/2000/svg" xmlns:xlink="http://www.w3.org/1999/xlink"><title>ECA8113B-A730-4E3B-B456-B91EBE188317</title><defs><path id="a" d="M0 0h30v30H0z"/></defs><g transform="translate(-2)" fill="none" fill-rule="evenodd"><mask id="b" fill="#fff"><use xlink:href="#a"/></mask><path d="M2 28c0 1.105.97 2 2.167 2h21.666C27.031 30 28 29.105 28 28v-6c0-3.314-2.907-6-6.5-6h-.556a.552.552 0 0 0-.552.486C20.126 19.02 17.814 21 15 21c-2.814 0-5.127-1.98-5.392-4.514A.552.552 0 0 0 9.056 16H8.5C4.91 16 2 18.686 2 22v6z" fill="#D8D8D8" mask="url(#b)"/><path d="M15 16c3.865 0 7-3.582 7-8s-3.135-8-7-8-7 3.582-7 8 3.135 8 7 8zm0-8.096c1.875 0 3.44-.956 3.932-2.257a5.164 5.164 0 0 1 1.201 3.293c0 2.86-2.3 5.178-5.133 5.178-2.835 0-5.133-2.318-5.133-5.178 0-1.258 3.258-1.036 5.133-1.036z" fill="#D8D8D8" mask="url(#b)"/></g></svg>