<svg xmlns="http://www.w3.org/2000/svg" xmlns:xlink="http://www.w3.org/1999/xlink" width="280" height="146" viewBox="0 0 280 146">
    <defs>
        <path id="a" d="M.053.422h13.524v23.053H.053z"/>
        <path id="c" d="M0 .338h27.138V15.67H0z"/>
    </defs>
    <g fill="none" fill-rule="evenodd">
        <path fill="#02826A" d="M33.94 84.837c-2.687-25.192 12.593-49.74 37.522-54.328 17.258-3.176 29.424 1.482 39.755 10.467 18.75 16.31 25.479 52.613 25.479 52.613l-20.385 7.703 5.667 30.573-74.786 13.763s-9.955-29.876-13.252-60.79"/>
        <path fill="#F7F248" d="M82.267 85.427c-4.747.874-9.322-2.264-10.198-6.993-.877-4.73 2.271-9.288 7.018-10.162 4.746-.873 9.321 2.264 10.198 6.994.877 4.73-2.272 9.287-7.018 10.16zm21.78-12.878c2.38 12.84-6.168 25.215-19.054 27.587-12.886 2.371-25.306-6.146-27.686-18.985-2.38-12.84 6.167-25.216 19.053-27.588 4.98-.916 11.23 3.41 12.159 8.417l.552 2.982a14.592 14.592 0 0 0-11.045-2.415c-7.915 1.456-13.166 9.058-11.703 16.945 1.462 7.886 9.09 13.117 17.005 11.66a14.556 14.556 0 0 0 9.451-6.187l.57 3.073 5.746-1.058-4.847-26.148C92.67 52.637 83.49 46.33 75.299 47.838c-16.054 2.954-26.703 18.373-23.738 34.37 2.965 15.997 18.44 26.608 34.494 23.653 16.054-2.954 26.703-18.373 23.738-34.37l-5.746 1.058z"/>
        <g transform="translate(61.843 .063)">
            <mask id="b" fill="#fff">
                <use xlink:href="#a"/>
            </mask>
            <path fill="#0067D8" d="M13.577 21.712L4 23.475.053 2.185 9.63.421z" mask="url(#b)"/>
        </g>
        <path fill="#0067D8" d="M31.893 49.287l-20.71-14.202 5.52-7.994 20.711 14.202zM46.526 33.499L32.364 13.781l7.92-5.648 14.162 19.718z"/>
        <g transform="translate(0 54.407)">
            <mask id="d" fill="#fff">
                <use xlink:href="#c"/>
            </mask>
            <path fill="#0067D8" d="M24.887 15.67L0 9.78 2.25.338l24.888 5.89z" mask="url(#d)"/>
        </g>
        <path fill="#02826A" d="M140.01 133.453c-7.204 0-12.253-3.994-12.563-9.94l-.053-1.028h6.046l.134.82c.391 2.405 3.646 3.893 6.436 3.893 3.782 0 6.424-1.537 6.424-3.737 0-1.982-.956-2.832-6.616-3.961-7.75-1.544-11.206-4.556-11.206-9.768 0-6.384 5.725-9.241 11.398-9.241 6.267 0 10.846 3.509 11.393 8.73l.114 1.077h-6.072l-.158-.784c-.337-1.682-2.409-2.768-5.277-2.768-2.959 0-5.19 1.284-5.19 2.986 0 1.227.743 2.506 6.131 3.55 8.15 1.653 11.623 4.696 11.623 10.18 0 6.162-4.814 9.991-12.564 9.991M181.206 100.491H153.58v6.157h10.556v26.838h6.514v-26.838h10.557zM197.524 107.102c-5.416 0-9.659 4.407-9.659 10.032 0 5.606 4.333 10.168 9.66 10.168 5.435 0 10.203-4.751 10.203-10.168 0-5.438-4.673-10.032-10.204-10.032m.136 26.623c-8.951 0-16.514-7.597-16.514-16.59 0-9.074 7.408-16.456 16.514-16.456 3.815 0 7.473 1.415 10.341 3.946v-4.134h6.515v32.995H208v-3.805c-2.876 2.594-6.533 4.044-10.34 4.044M240.233 132.978l-12.974-14.906-1.898 1.848v13.566h-6.514v-32.995h6.514v10.58l10.83-10.528h9.212l-13.406 12.915 16.945 19.52z"/>
        <path fill="#02826A" d="M272.574 113.922c-1.341-4.014-5.08-6.82-9.297-6.82-4.29 0-7.965 2.75-9.3 6.82h18.597zm-9.297 19.804c-8.952 0-16.514-7.598-16.514-16.592 0-9.074 7.408-16.455 16.514-16.455 9.106 0 16.514 7.381 16.514 16.455v3.076h-25.833c1.3 4.173 5.054 7.092 9.319 7.092 2.927 0 5.677-1.373 7.546-3.768l.293-.375h7.691l-.682 1.395c-2.722 5.572-8.55 9.172-14.848 9.172z"/>
    </g>
</svg>
