<?xml version="1.0" encoding="UTF-8"?>
<svg width="210px" height="143px" viewBox="0 0 210 143" version="1.1" xmlns="http://www.w3.org/2000/svg" xmlns:xlink="http://www.w3.org/1999/xlink">
    <!-- Generator: Sketch 43.2 (39069) - http://www.bohemiancoding.com/sketch -->
    <title>2 coins stroke</title>
    <desc>Created with Sketch.</desc>
    <defs></defs>
    <g id="IPHONE-MOCKUPS" stroke="none" stroke-width="1" fill="none" fill-rule="evenodd">
        <g id="2-coins-stroke" transform="translate(-8.000000, -7.000000)" fill-rule="nonzero">
            <g id="Layer_2" transform="translate(83.000000, 13.000000)">
                <path d="M19.65,20.35 C2.72275635,37.2772436 -3.88808482,61.9492388 2.30771637,85.0722836 C8.50351756,108.195328 26.5646715,126.256482 49.6877164,132.452284 C72.8107612,138.648085 97.4827564,132.037244 114.41,115.11 L19.65,20.35 Z" id="Shape" fill="#56D5FF"></path>
                <path d="M114.41,115.11 C140.577251,88.9427486 140.577251,46.5172514 114.41,20.35 C88.2427486,-5.81725145 45.8172514,-5.81725145 19.65,20.35 L114.41,115.11 Z" id="Shape" fill="#56D5FF"></path>
                <path d="M38.35,39.19 C35.5977746,41.9413003 34.0515127,45.6734196 34.0515127,49.565 C34.0515127,53.4565804 35.5977746,57.1886997 38.35,59.94 L38.35,59.94 L38.75,60.32 C33.4716805,61.5359199 29.2928597,65.5614198 27.8805769,70.7906239 C26.4682941,76.0198279 28.0523801,81.6017509 32.0009021,85.3096198 C35.9494241,89.0174887 41.6198113,90.2478958 46.75,88.51 C44.955731,93.4787257 45.9695483,99.0283396 49.404695,103.041743 C52.8398418,107.055146 58.1664928,108.913324 63.3526063,107.90741 C68.5387198,106.901496 72.7844076,103.186637 74.47,98.18 C74.5966667,97.8133333 74.71,97.44 74.81,97.06 L74.86,97.12 C77.6113003,99.8722254 81.3434196,101.418487 85.235,101.418487 C89.1265804,101.418487 92.8586997,99.8722254 95.61,97.12 L95.61,97.12 L95.83,96.89 L38.42,39.12 L38.35,39.19 Z" id="Shape" fill="#20B5E6"></path>
                <path d="M87.98,47.24 C89.7563855,42.0367453 88.4741585,36.27701 84.6582362,32.3187097 C80.8423139,28.3604093 75.133391,26.868144 69.8685815,28.4528161 C64.603772,30.0374882 60.6670394,34.4330307 59.67,39.84 C59.48,39.62 59.28,39.4 59.07,39.2 C53.3601426,33.4880993 44.1073843,33.4657496 38.37,39.15 L95.78,96.89 C101.29893,91.1282265 101.201194,82.012123 95.56,76.37 C95.3,76.11 95.03,75.89 94.76,75.63 C100.308906,74.889235 104.952499,71.0550243 106.729829,65.7465231 C108.507159,60.4380218 107.10835,54.5807647 103.124106,50.6482222 C99.1398623,46.7156798 93.2648354,45.393489 87.98,47.24 Z" id="Shape" fill="#20B5E6"></path>
                <path d="M100.9,101.6 C82.0660764,119.490838 52.4029398,119.104551 34.0412891,100.729336 C15.6796384,82.3541199 15.3152579,52.6907061 33.22,33.87 L27.22,27.87 C5.39571468,49.9066692 5.48173633,85.4367949 27.4124707,107.367529 C49.3432051,129.298264 84.8733308,129.384285 106.91,107.56 L100.9,101.6 Z" id="Shape" fill="#20B5E6"></path>
                <path d="M33.16,33.87 C51.8631231,15.1668769 82.1868769,15.1668769 100.89,33.87 C119.593123,52.5731231 119.593123,82.8968769 100.89,101.6 L106.89,107.6 C128.90407,85.5997369 128.915262,49.9190705 106.914999,27.9050006 C84.9147366,5.8909307 49.2340702,5.87973755 27.22,27.88 L33.16,33.87 Z" id="Shape" fill="#20B5E6"></path>
                <path d="M48.16,3.56 C19.2280826,12.2139273 -0.391376484,39.0872879 0.179490767,69.2803403 C0.750358017,99.4733927 21.3716338,125.585912 50.61,133.14 C73.0951674,119.044064 86.5427988,94.1904313 86.0411236,67.6569339 C85.5394485,41.1234365 71.1619369,16.7959003 48.16,3.56 L48.16,3.56 Z" id="Shape" fill-opacity="0.452785326" fill="#894B00" opacity="0.29"></path>
            </g>
            <path d="M28.95,28.03 C11.011694,45.9683051 4.00598769,72.1139551 10.571863,96.6181362 C17.1377384,121.122317 36.2776826,140.262262 60.7818638,146.828137 C85.2860449,153.394012 111.431695,146.388306 129.37,128.45 L28.95,28.03 Z" id="Shape" fill="#56D5FF"></path>
            <path d="M129.37,128.45 C157.100216,100.719783 157.100215,55.7602181 129.369999,28.0300013 C101.639782,0.299784513 56.6802175,0.299783933 28.95,28.03 L129.37,128.45 Z" id="Shape" fill="#56D5FF"></path>
            <path d="M48.77,47.99 C45.8510619,50.9065549 44.2110191,54.863683 44.2110191,58.99 C44.2110191,63.116317 45.8510619,67.0734451 48.77,69.99 L48.77,69.99 L49.19,70.39 C43.548348,71.6307885 39.0594181,75.8966408 37.5329203,81.4677805 C36.0064224,87.0389201 37.6939496,92.9971278 41.9151761,96.940355 C46.1364025,100.883582 52.1955977,102.161917 57.65,100.26 C54.8223021,108.370302 59.1046984,117.237302 67.215,120.065 C75.3253016,122.892698 84.1923021,118.610302 87.02,110.5 C87.1533333,110.113333 87.2733333,109.72 87.38,109.32 L87.44,109.38 C90.3565549,112.298938 94.313683,113.938981 98.44,113.938981 C102.566317,113.938981 106.523445,112.298938 109.44,109.38 L109.44,109.38 L109.68,109.13 L48.83,47.91 L48.77,47.99 Z" id="Shape" fill="#20B5E6"></path>
            <path d="M101.36,56.52 C103.268363,50.998283 101.920741,44.8728389 97.8711553,40.6618937 C93.8215693,36.4509484 87.7534262,34.8651403 82.1613948,36.5564096 C76.5693634,38.2476788 72.3971541,42.9306072 71.36,48.68 C71.15,48.45 70.94,48.22 70.72,48 C64.6709097,41.9512881 54.8720978,41.9244788 48.79,47.94 L109.63,109.13 C115.47099,103.022148 115.364406,93.3674157 109.39,87.39 C109.12,87.12 108.83,86.88 108.54,86.61 C114.428245,85.8335197 119.359929,81.7707899 121.249261,76.14009 C123.138592,70.5093901 121.655552,64.2942572 117.427375,60.1233017 C113.199198,55.9523463 106.964435,54.5541259 101.36,56.52 Z" id="Shape" fill="#20B5E6"></path>
            <path d="M115.05,114.13 C95.1962798,133.742703 63.2320564,133.645103 43.4984769,113.911523 C23.7648975,94.1779436 23.6672973,62.2137202 43.28,42.36 L36.94,36.02 C14.1232938,59.4247413 14.3611809,96.8236313 37.4737748,119.936225 C60.5863687,143.048819 97.9852587,143.286706 121.39,120.47 L115.05,114.13 Z" id="Shape" fill="#20B5E6"></path>
            <path d="M43.22,42.36 C63.0737202,22.7472973 95.0379436,22.8448975 114.771523,42.5784769 C134.505103,62.3120564 134.602703,94.2762798 114.99,114.13 L121.33,120.47 C143.988887,97.042264 143.679143,59.7738098 120.63399,36.7259274 C97.5888364,13.6780449 60.3204191,13.3638875 36.89,36.02 L43.22,42.36 Z" id="Shape" fill="#20B5E6"></path>
        </g>
    </g>
</svg>