<?xml version="1.0" encoding="UTF-8"?>
<svg width="258px" height="222px" viewBox="0 0 258 222" version="1.1" xmlns="http://www.w3.org/2000/svg" xmlns:xlink="http://www.w3.org/1999/xlink">
    <!-- Generator: Sketch 43.2 (39069) - http://www.bohemiancoding.com/sketch -->
    <title>el logo square (1)</title>
    <desc>Created with Sketch.</desc>
    <defs></defs>
    <g id="IPHONE-MOCKUPS" stroke="none" stroke-width="1" fill="none" fill-rule="evenodd">
        <g id="el-logo-square-(1)" transform="translate(-2.000000, -1.000000)" fill="#FFFFFF">
            <path d="M149.6,142.1 L149.6,28.6 C124.1,-3.2 77.6,-8.3 45.8,17.3 C14,42.9 9,89.2 34.5,121 C56.2,148 93.8,156.3 124.8,140.9 C147.4,160.7 181,161.4 204.4,142.5 L149.6,142.5 L149.6,142.1 L149.6,142.1 Z M118,109.4 C112.5,113.2 106.1,115.8 99.5,116.9 C93.8,118 87.9,118 82.2,117 C76.9,116 71.9,114 67.4,111 C62.9,107.9 59.1,104 56.3,99.4 C53.1,94.4 51,88.7 50,82.9 C48.9,77.1 48.9,71.1 50,65.3 C51,59.9 53.1,54.8 56.2,50.3 C59.3,45.9 63.2,42.2 67.7,39.3 C77.3,33.4 88.7,31.2 99.9,33.1 C104.8,34 109.5,36.1 113.5,39.1 C117.6,42.2 121,46.2 123.5,50.7 C126.4,55.9 128.4,61.5 129.3,67.4 L129.8,70.1 C130,71 130.1,71.9 130.1,72.8 L66.8,84.4 C67.5,87.6 68.9,90.7 70.8,93.4 C72.7,96 75.1,98.3 77.8,100 C83.5,103.6 90.4,104.9 97,103.6 C101.9,102.8 106.5,100.7 110.3,97.5 C113.6,94.7 116.2,91.2 118,87.3 L130.7,94.2 C127.8,100.3 123.4,105.5 118,109.4 Z" id="Shape" fill-rule="nonzero"></path>
            <path d="M108.8,55.4 C107.4,52.9 105.6,50.8 103.3,49 C101,47.3 98.3,46.1 95.5,45.5 C92.2,44.8 88.8,44.8 85.5,45.5 C82.3,46.1 79.2,47.2 76.4,49 C73.8,50.6 71.4,52.7 69.6,55.2 C67.8,57.7 66.4,60.4 65.5,63.4 C64.6,66.4 64.3,69.5 64.7,72.7 L112,64 C111.4,61 110.3,58.1 108.8,55.4 Z" id="Shape" fill-rule="nonzero"></path>
            <path d="M165.9,32.7 L165.9,126.2 L218.6,126.2 C236.1,96.9 226.6,59 197.3,41.5 C187.8,35.7 177,32.7 165.9,32.7 Z" id="Shape" fill-rule="nonzero"></path>
            <text id="@" font-family="Helvetica" font-size="18" font-weight="normal">
                <tspan x="56.75" y="216.97">@</tspan>
            </text>
            <text id="E" font-family="Helvetica" font-size="19.09" font-weight="normal">
                <tspan x="72.1299" y="216.9697">E</tspan>
            </text>
            <text id="merson" font-family="Helvetica" font-size="24.45" font-weight="normal">
                <tspan x="85.31" y="216.97">merson</tspan>
            </text>
            <text id="C" font-family="Helvetica" font-size="21.516" font-weight="normal">
                <tspan x="171.1899" y="216.9697">C</tspan>
            </text>
            <text id="o" font-family="Helvetica" font-size="24.45" font-weight="normal">
                <tspan x="186.99" y="216.97">o</tspan>
            </text>
            <text id="ll" font-family="Helvetica" font-size="21.516" font-weight="normal">
                <tspan x="201.2202" y="216.9697">ll</tspan>
            </text>
            <text id="ege" font-family="Helvetica" font-size="24.45" font-weight="normal">
                <tspan x="212.57" y="216.97">ege</tspan>
            </text>
            <text id="Engagement-Lab" font-family="Helvetica" font-size="34.37" font-weight="normal">
                <tspan x="0" y="191.79">Engagement Lab</tspan>
            </text>
        </g>
    </g>
</svg>