<?xml version="1.0" encoding="UTF-8"?>
<svg width="173px" height="201px" viewBox="0 0 173 201" version="1.1" xmlns="http://www.w3.org/2000/svg" xmlns:xlink="http://www.w3.org/1999/xlink">
    <!-- Generator: Sketch 43.2 (39069) - http://www.bohemiancoding.com/sketch -->
    <title>listen icon</title>
    <desc>Created with Sketch.</desc>
    <defs></defs>
    <g id="IPHONE-MOCKUPS" stroke="none" stroke-width="1" fill="none" fill-rule="evenodd">
        <g id="listen-icon" fill-rule="nonzero" fill="#56D5FF">
            <path d="M127.988206,0.0234393686 C127.060441,6.90289404 126.134641,13.784302 125.210807,20.6676632 C124.192624,28.2542055 123.176406,35.8427011 122.162155,43.43315 C121.949869,45.0387467 121.784758,46.6502033 121.572473,48.5780914 C116.972959,48.4140158 112.438309,48.7890457 108.104151,49 C107.74427,48.7827236 107.533604,48.3865437 107.555747,47.9686678 C107.408327,42.765128 107.290391,37.5557283 107.101693,32.3521885 C106.789161,23.7675197 106.364591,15.1887108 106.276139,6.56888304 C106.276139,5.15080124 105.786703,3.75029897 106.111028,2.19158096 C108.505134,1.42394164 111.064351,1.46496054 113.5646,1.23056685 C115.775905,1.02547238 117.981314,0.644582636 120.216206,0.744199952 C120.717435,0.744199952 121.330704,0.802798374 121.30122,0 L122.875669,0 C124.246678,0.648566367 125.838818,0.648566367 127.209827,1.66546731e-14 L128,1.66546731e-14 L127.988206,0.0234393686 Z" id="Shape"></path>
            <path d="M121.507159,67.0107543 C133.102822,66.9632967 142.754091,69.8997375 151.374241,75.9090599 C159.699786,81.6988907 165.633136,89.5531284 169.822423,98.7955018 C171.015879,101.358801 172.001119,104.015229 172.768475,106.738723 C173.534449,109.562452 172.356028,111.89974 169.881344,112.564147 C167.312386,113.258214 165.167659,111.73957 164.30152,108.93957 C159.941362,94.987027 151.833825,84.2438061 138.02273,78.6260092 C130.115525,75.4107548 121.890145,74.9183818 113.5646,76.6327887 C103.82495,78.6378736 95.3403185,83.0514331 88.5526131,90.4607556 C82.6251551,96.9268576 79.2254103,104.537875 79.7792682,113.424316 C80.439184,124.025164 83.7858998,133.718385 90.5382526,142.106521 C94.7039711,147.285335 99.2467844,152.108217 103.801382,156.93703 C109.237408,162.560354 113.873396,168.914833 117.577124,175.819235 C119.544736,179.544197 121.840059,183.084071 124.435535,186.396354 C127.084456,189.835754 131.074546,191.962149 135.388959,192.233642 C140.385464,192.678558 145.405538,192.376015 150.077978,190.513303 C157.012986,187.760761 160.889991,182.255676 162.675299,175.166692 C163.295875,172.405489 163.586648,169.57954 163.541438,166.748895 C163.488951,165.158975 164.311244,163.669399 165.680063,162.874799 C167.048881,162.0802 168.741285,162.109993 170.081675,162.952285 C171.355099,163.573046 172.168207,164.867694 172.179265,166.292116 C172.267646,173.790421 171.000844,180.897201 166.823341,187.333642 C161.585259,195.389575 154.184775,199.607372 144.798651,200.681101 C140.384292,201.19513 135.920321,201.087313 131.535522,200.360762 C125.37238,199.340422 120.929732,195.828558 117.147001,191.183642 C114.063682,187.243189 111.379253,183.002339 109.133737,178.52432 C105.521877,171.613302 100.295579,165.983641 95.0633896,160.365844 C90.5382526,155.525166 85.9895473,150.702284 82.059513,145.33364 C77.070825,138.540555 73.7001406,130.683667 72.2079128,122.370079 C71.4754032,118.898542 71.0709717,115.36498 71.0000312,111.816689 C70.9908361,104.669711 73.0172719,97.6699425 76.8391076,91.6471963 C84.9643209,78.7802465 96.819237,71.3531274 111.484687,68.2149917 C115.131901,67.3904153 118.814466,66.9217712 121.507159,67.0107543 Z" id="Shape"></path>
            <path d="M151.556506,132.008371 C151.288291,126.070143 150.602853,120.428826 147.890905,115.244753 C145.035908,109.781584 141.620641,104.740028 136.721252,100.77923 C131.952991,96.9371965 126.505252,95.9573889 120.682012,96.4680765 C115.240234,96.9431347 110.370647,98.878997 106.734848,103.148583 C103.273217,107.194685 101.115209,112.185846 100.542068,117.471589 C99.4751695,126.693657 103.093088,134.294589 109.172621,140.951342 C109.768654,141.634239 110.513695,142.239938 111.127608,142.928772 C112.719956,144.58004 112.671985,147.203356 111.020323,148.795742 C110.248535,149.590452 109.18414,150.036181 108.074237,150.029452 C106.964335,150.022723 105.905463,149.564121 105.14344,148.760112 C98.4261519,142.228061 93.741335,134.567747 92.2989359,125.238791 C90.8695741,114.375571 94.6179156,103.470994 102.431492,95.7614273 C106.29821,92.1159874 111.146514,89.6709045 116.384617,88.7246272 C122.039971,87.5270957 127.910877,87.8177107 133.419231,89.5678555 C138.920613,91.3493239 143.295493,94.8231873 147.038578,99.0690203 C150.840955,103.385806 153.969417,108.248272 156.318807,113.492976 C158.053262,117.382515 158.845985,121.515522 159.436058,125.684158 C160.187981,130.914783 160.187981,136.225467 159.436058,141.456092 C158.452604,148.243486 156.169799,154.520193 150.942592,159.300467 C148.558461,161.461982 145.834592,163.005921 142.431245,162.999983 C139.027899,162.994045 135.7676,160.980985 134.68282,157.827786 C132.012594,150.161534 132.650349,142.833761 137.978881,136.450166 C140.684869,133.207893 144.535241,131.699583 148.796874,131.266093 C149.643241,131.230463 150.36444,131.889606 151.556506,132.008371 Z M151.347894,138.772013 C150.436846,139.260472 149.449376,139.591755 148.427334,139.75182 C146.289103,140.055505 144.392922,141.280196 143.24185,143.100981 C141.334545,146.313562 141.102092,149.834931 141.870974,153.415683 C142.186872,154.888363 142.842508,155.090263 144.123978,154.169838 C145.478319,153.200478 146.643773,151.993061 147.563087,150.606901 C149.893574,147.127099 150.888949,143.225684 151.347894,138.772013 Z" id="Shape"></path>
            <path d="M53.5913909,139.003505 C54.4794499,143.098218 55.6177678,147.135203 57,151.091961 L2.72263471,177 C1.88823562,174.897916 1.80538748,172.754614 1.43848859,170.676083 C0.846716177,167.143169 0.302285562,163.610254 0.0123170817,160.018458 C-0.0764487796,158.923254 0.308203286,158.422758 1.37339362,158.028249 C18.0534852,151.880978 34.723714,145.706229 51.3840798,139.504001 C52.062253,139.145429 52.8240404,138.972698 53.5913909,139.003505 L53.5913909,139.003505 Z" id="Shape"></path>
            <path d="M56,95.9785579 C54.6649356,100.195147 53.3239639,104.49453 52.1956573,108.989071 C49.744101,109.09552 47.4697657,108.397684 45.1658936,108.054679 C36.7065477,106.718145 28.2708312,105.263333 19.8233,103.855832 C14.2762848,102.933268 8.73517696,101.992963 3.18225436,101.105883 C2.03031829,100.922553 1.81174581,100.479013 2.13665085,99.373119 C3.86160128,93.4592495 6.04141876,87.681399 8.24486571,81.9212901 C8.74108432,80.6143249 9.55039325,80.9928126 10.4660347,81.2885061 C18.704839,83.9142641 26.9475816,86.5281944 35.1942624,89.130297 C41.4954511,91.1212997 47.8064855,93.1044173 54.1273655,95.0796497 C54.8272288,95.1853849 55.479443,95.4984629 56,95.9785579 L56,95.9785579 Z" id="Shape"></path>
            <path d="M80,59.2848447 C76.2335287,62.3117577 72.6360181,65.5553058 69.2246476,69 L33,37.4514067 C34.7587626,35.6883083 36.2654359,33.9674759 37.9597106,32.4458978 C40.8030435,29.8978583 43.7519022,27.464541 46.6597231,24.9949956 C48.324685,23.5760637 48.4184857,23.6485198 49.8958463,25.3814281 C51.8304852,27.6456812 53.8530622,29.8314402 55.8521891,32.0232372 C63.5321192,40.5086516 71.2140036,48.9900405 78.8978421,57.4674042 C79.386281,57.9858063 79.7619912,58.6053463 80,59.2848447 L80,59.2848447 Z" id="Shape"></path>
        </g>
    </g>
</svg>