<svg width="34" height="34" viewBox="0 0 34 34" xmlns="http://www.w3.org/2000/svg" xmlns:xlink="http://www.w3.org/1999/xlink"><title>1602DF67-D3E9-4212-9297-0547B5ABDBB9</title><defs><rect id="a" width="32" height="32" rx="16"/><filter x="-50%" y="-50%" width="200%" height="200%" filterUnits="objectBoundingBox" id="b"><feGaussianBlur stdDeviation=".5" in="SourceAlpha" result="shadowBlurInner1"/><feOffset in="shadowBlurInner1" result="shadowOffsetInner1"/><feComposite in="shadowOffsetInner1" in2="SourceAlpha" operator="arithmetic" k2="-1" k3="1" result="shadowInnerInner1"/><feColorMatrix values="0 0 0 0 0 0 0 0 0 0 0 0 0 0 0 0 0 0 0.251783288 0" in="shadowInnerInner1"/></filter><mask id="c" x="-1" y="-1" width="34" height="34"><path fill="#fff" d="M-1-1h34v34H-1z"/><use xlink:href="#a"/></mask></defs><g transform="translate(1 1)" fill="none" fill-rule="evenodd"><mask id="d" fill="#fff"><use xlink:href="#a"/></mask><use fill="#FF115A" xlink:href="#a"/><use fill="#000" filter="url(#b)" xlink:href="#a"/><use stroke="#EBEBEB" mask="url(#c)" stroke-width="2" xlink:href="#a"/><path fill="none" mask="url(#d)" d="M0 0h32v32H0z"/><path d="M13.094 1.318c-.035 0-.07.002-.106.004h-.029c-.651 0-1.202.213-1.445.496-.228.266-.342.632-.006 1.385.36.55.647 1.303.896 2.274l-1.133.29c-.422-1.641-.948-2.301-1.304-2.458-.179-.079-.354-.086-.616-.006-.261.08-.59.261-.947.525-.55.407-.895.932-.875 1.377.016.342.226.785.953 1.272l.207.115-.006.012c.175.105.372.212.6.32l-.502 1.055a7.25 7.25 0 0 1-.855-.475C7.006 7 6.329 6.78 5.969 6.81a.637.637 0 0 0-.454.21c-.144.145-.307.406-.454.819-.247.687-.288 1.249-.1 1.555.15.243.529.505 1.428.595.224.005.463.014.724.026v.007h.074l.01 1.168a8.623 8.623 0 0 1-.756-.025c-.748-.005-1.201.056-1.388.15-.118.06-.162.104-.227.237-.065.132-.126.363-.168.703-.039.314-.013.546.053.705.065.16.16.276.392.4.465.249 1.52.407 3.285.256l.1 1.164c-1.352.115-2.363.096-3.145-.097a1.12 1.12 0 0 0 .028.646l.002.006c.107.2.247.375.43.527l.003.002c.44.327 1.164.512 1.592.512h6.488c.757 0 1.414-.557 1.668-1.568l.504-2.004.621 1.973c.326 1.037 1.006 1.6 1.678 1.6h6.488c.391 0 1.148-.248 1.6-.642.056-.049.11-.1.156-.152l.026-.03.004-.003c.093-.12.17-.25.234-.39.008-.022.017-.043.023-.065a.959.959 0 0 0 .028-.43c-.79.21-1.823.234-3.215.115l.1-1.164c1.764.15 2.818-.007 3.283-.255.232-.125.326-.242.392-.4.066-.16.093-.391.055-.706-.042-.34-.105-.57-.17-.703-.065-.132-.11-.177-.227-.236-.187-.095-.64-.155-1.389-.15a8.62 8.62 0 0 1-.755.025L25 10.024h.075v-.008c.261-.012.5-.02.724-.025.9-.09 1.279-.353 1.428-.596.188-.306.147-.868-.1-1.555-.147-.413-.312-.674-.457-.818a.637.637 0 0 0-.453-.211c-.36-.03-1.035.19-1.955.693-.254.166-.54.324-.857.475l-.5-1.055c.228-.108.425-.215.6-.32l-.008-.012.218-.121c.72-.484.928-.925.944-1.266.02-.444-.324-.97-.875-1.377-.358-.263-.686-.445-.948-.525-.261-.08-.436-.073-.615.006-.124.054-.268.171-.422.367a4.225 4.225 0 0 1-.091.2l-.038-.018c-.252.388-.52.996-.755 1.91l-1.131-.291c.278-1.083.603-1.895 1.023-2.457.24-.63.13-.958-.078-1.201-.243-.284-.794-.496-1.445-.496h-.03c-.572-.03-.956.109-1.274.347-.319.239-.575.602-.768 1.057-.387.91-.496 2.148-.496 3.056v.004l-.012 2.127v.006h-1.168v-.006l-.012-2.127v-.004c0-.907-.107-2.147-.494-3.056-.193-.455-.45-.818-.767-1.057-.299-.224-.655-.36-1.17-.351zm2.743 15.36c-.53.597-1.33.988-2.256.988H11.04l6.133 3.943-5.139.063 13.588 6.526-4.535-5.297 3.445.232-4.752-5.467h-1.728a2.97 2.97 0 0 1-2.215-.988z" fill="#EBEBEB" mask="url(#d)"/></g></svg>