<svg width="34" height="34" viewBox="0 0 34 34" xmlns="http://www.w3.org/2000/svg" xmlns:xlink="http://www.w3.org/1999/xlink"><title>27F741E2-7B9E-452D-8368-DA1795D40EBA</title><defs><rect id="a" width="32" height="32" rx="16"/><filter x="-50%" y="-50%" width="200%" height="200%" filterUnits="objectBoundingBox" id="b"><feGaussianBlur stdDeviation=".5" in="SourceAlpha" result="shadowBlurInner1"/><feOffset in="shadowBlurInner1" result="shadowOffsetInner1"/><feComposite in="shadowOffsetInner1" in2="SourceAlpha" operator="arithmetic" k2="-1" k3="1" result="shadowInnerInner1"/><feColorMatrix values="0 0 0 0 0 0 0 0 0 0 0 0 0 0 0 0 0 0 0.246065444 0" in="shadowInnerInner1"/></filter><mask id="c" x="-1" y="-1" width="34" height="34"><path fill="#fff" d="M-1-1h34v34H-1z"/><use xlink:href="#a"/></mask></defs><g transform="translate(1 1)" fill="none" fill-rule="evenodd"><mask id="d" fill="#fff"><use xlink:href="#a"/></mask><use fill="#FF4700" xlink:href="#a"/><use fill="#000" filter="url(#b)" xlink:href="#a"/><use stroke="#EBEBEB" mask="url(#c)" stroke-width="2" xlink:href="#a"/><path d="M25.263 5c-.496 0-.978.067-1.445.202a5.76 5.76 0 0 0-1.373.614v1.359a6.72 6.72 0 0 1 1.344-.737c.434-.169.84-.253 1.222-.253.52 0 .936.132 1.25.397.318.265.476.612.476 1.041 0 .236-.062.467-.187.694-.12.226-.318.467-.593.722l-.65.643c-.434.415-.718.778-.853 1.091-.135.314-.202.713-.202 1.2v1.113h1.38v-.889c0-.25.007-.448.021-.592.015-.145.037-.268.066-.369.038-.12.103-.243.195-.368a5.31 5.31 0 0 1 .484-.535l.636-.622c.433-.414.737-.785.91-1.112.174-.333.26-.682.26-1.048 0-.766-.27-1.383-.81-1.85-.534-.467-1.244-.7-2.13-.7V5zm-12.02.595C8.206 5.595 4 10.409 4 16.485c0 2.785.884 5.304 2.326 7.216a1.92 1.92 0 0 1 1.064-.234c.574.043 1.141.343 1.64.868 1.154 1.215 2.206 1.986 3.717 2.873 3.925-2.086 5.82-4.488 8.704-6.866a3 3 0 0 1 .549-.361c.315-1.095.486-2.27.486-3.496 0-6.076-4.205-10.89-9.243-10.89zm-2.33 6.286l-.856.73c-.744-.874-1.365-1.127-1.987-1.087-.622.04-1.34.43-2.107 1.136l-.761-.829c.867-.797 1.784-1.366 2.796-1.43.063-.004.127-.006.19-.006.949 0 1.891.506 2.726 1.486zm6.962-1.48c1.013.064 1.93.633 2.797 1.43l-.762.829c-.767-.706-1.484-1.097-2.106-1.136-.622-.04-1.243.213-1.988 1.086l-.856-.73c.835-.979 1.777-1.479 2.726-1.485.063 0 .126.002.19.006zm6.333 3.747v1.835h1.467v-1.835h-1.467zM8.34 13.36c.79 0 1.517.235 2.07.648.554.413.944 1.035.944 1.744 0 .709-.39 1.331-.944 1.745-.553.413-1.28.647-2.07.647-.79 0-1.516-.234-2.07-.647-.553-.414-.943-1.036-.943-1.745 0-.709.39-1.331.944-1.744.553-.413 1.279-.648 2.07-.648zm9.806 0c.79 0 1.516.235 2.07.648.553.413.944 1.035.944 1.744 0 .709-.39 1.331-.944 1.745-.553.413-1.28.647-2.07.647-.79 0-1.516-.234-2.07-.647-.553-.414-.944-1.036-.944-1.745 0-.709.39-1.331.944-1.744.554-.413 1.28-.648 2.07-.648zm-1.404 1.531c-.334.25-.492.542-.492.843 0 .302.158.594.492.843.334.25.833.424 1.397.424.563 0 1.063-.175 1.397-.424.333-.25.492-.541.492-.843 0-.014-.16-1.36-2.1-1.258-.477.037-.895.198-1.186.415zm-9.875 0c-.334.25-.492.542-.492.843 0 .302.158.594.492.843.334.25.833.424 1.397.424.563 0 1.063-.175 1.397-.424.334-.25.492-.541.492-.843 0-.014-.16-1.36-2.1-1.258-.477.037-.895.198-1.186.415zm16.272 5.373a.707.707 0 0 0-.082.001c-.227.015-.507.139-.862.452-2.597 2.288-4.51 4.781-8.096 7.001l-2.494 1.655-.622-.937.778-.516c-1.381-.897-2.448-1.771-3.571-3.034-.363-.408-.668-.535-.89-.553-.223-.018-.41.059-.596.246-.367.372-.594 1.204-.263 2.018.78 1.434 2.26 2.76 3.378 4.45l.122.185-.036.218c-.04.23-.075.46-.11.691h13.217a3.13 3.13 0 0 0 .012-.234c-.007-.262-.202-.629-.517-.91-.316-.282-.733-.445-.962-.44l-.777.02.224-.744c.121-.403 0-.914-.289-1.177-.288-.262-.762-.418-1.707.062l-.671-.88c1.755-1.934 4.085-4.27 5.478-6.411.19-.293.086-.723-.202-.963a.772.772 0 0 0-.462-.2zm-7.67 2.29l.45 1.032c-1.753.765-3.592.808-5.362-.005l.47-1.022c1.498.688 2.928.656 4.443-.005z" fill="#EBEBEB" mask="url(#d)"/></g></svg>