<svg width="34" height="34" viewBox="0 0 34 34" xmlns="http://www.w3.org/2000/svg" xmlns:xlink="http://www.w3.org/1999/xlink"><title>A258E80C-7B1B-4E86-974E-3985AE3C1E23</title><defs><rect id="a" width="32" height="32" rx="16"/><filter x="-50%" y="-50%" width="200%" height="200%" filterUnits="objectBoundingBox" id="b"><feGaussianBlur stdDeviation=".5" in="SourceAlpha" result="shadowBlurInner1"/><feOffset in="shadowBlurInner1" result="shadowOffsetInner1"/><feComposite in="shadowOffsetInner1" in2="SourceAlpha" operator="arithmetic" k2="-1" k3="1" result="shadowInnerInner1"/><feColorMatrix values="0 0 0 0 0 0 0 0 0 0 0 0 0 0 0 0 0 0 0.251783288 0" in="shadowInnerInner1"/></filter><mask id="c" x="-1" y="-1" width="34" height="34"><path fill="#fff" d="M-1-1h34v34H-1z"/><use xlink:href="#a"/></mask></defs><g transform="translate(1 1)" fill="none" fill-rule="evenodd"><mask id="d" fill="#fff"><use xlink:href="#a"/></mask><use fill="#20B5E6" xlink:href="#a"/><use fill="#000" filter="url(#b)" xlink:href="#a"/><use stroke="#EBEBEB" mask="url(#c)" stroke-width="2" xlink:href="#a"/><path fill="none" mask="url(#d)" d="M0 0h29.44v29.44H0z"/><path d="M29.333 20.598a1 1 0 0 1-1.007 1.005h-2.828l-.824 4.784-2.663-4.784h-9.09a1.006 1.006 0 0 1-1.004-1.003v-1.732H22.29v-8.59h6.034c.558 0 1.01.444 1.01 1.005v9.315zM20.418 6.667c.551 0 .999.444.999 1.005v9.315c0 .555-.447 1.005-1.005 1.005h-9.089L8.66 22.778l-.825-4.786H5.007A1.002 1.002 0 0 1 4 16.987V7.672c0-.555.448-1.005.999-1.005h15.419zM10.154 14.3a.621.621 0 0 0-1.06-.44.622.622 0 0 0 1.06.44zm3.328 0a.621.621 0 0 0-1.062-.434.622.622 0 0 0 1.062.435zm3.327 0a.621.621 0 0 0-1.06-.44.622.622 0 0 0 1.06.44z" fill="#EBEBEB" mask="url(#d)"/></g></svg>