<svg width="34" height="34" viewBox="0 0 34 34" xmlns="http://www.w3.org/2000/svg" xmlns:xlink="http://www.w3.org/1999/xlink"><title>3C843011-71FF-41AA-A7D7-D5A79E2005C6</title><defs><rect id="a" width="32" height="32" rx="16"/><filter x="-50%" y="-50%" width="200%" height="200%" filterUnits="objectBoundingBox" id="b"><feGaussianBlur stdDeviation=".5" in="SourceAlpha" result="shadowBlurInner1"/><feOffset in="shadowBlurInner1" result="shadowOffsetInner1"/><feComposite in="shadowOffsetInner1" in2="SourceAlpha" operator="arithmetic" k2="-1" k3="1" result="shadowInnerInner1"/><feColorMatrix values="0 0 0 0 0 0 0 0 0 0 0 0 0 0 0 0 0 0 0.245471014 0" in="shadowInnerInner1"/></filter><mask id="c" x="-1" y="-1" width="34" height="34"><path fill="#fff" d="M-1-1h34v34H-1z"/><use xlink:href="#a"/></mask></defs><g transform="translate(1 1)" fill="none" fill-rule="evenodd"><mask id="d" fill="#fff"><use xlink:href="#a"/></mask><use fill="#7309FF" xlink:href="#a"/><use fill="#000" filter="url(#b)" xlink:href="#a"/><use stroke="#EBEBEB" mask="url(#c)" stroke-width="2" xlink:href="#a"/><path fill="none" mask="url(#d)" d="M0 0h32v32H0z"/><path d="M16 2.063c-1.302 0-2.438 1.264-2.438 2.937 0 1.673 1.136 2.938 2.438 2.938 1.302 0 2.438-1.265 2.438-2.938 0-1.672-1.136-2.938-2.438-2.938zm-9.109 1.37l-1.062.531c.933 1.385 2.014 2.939 3.11 4.31 1.232 1.54 2.497 2.815 3.313 3.223l.31.155v2.468c1.696.225 2.908.311 4.243.255a4.004 4.004 0 0 1-.903-.896c-.367-.036-.661-.273-.837-.54a1.829 1.829 0 0 1-.286-1.017c0-.376.094-.725.286-1.016.191-.29.522-.546.935-.546.413 0 .744.255.935.546.192.29.286.64.286 1.016 0 .377-.094.726-.286 1.017-.003.006-.008.011-.012.017.12.147.271.297.457.444.393.31.92.591 1.547.791.165-.02.335-.042.51-.065v-2.474l.311-.155c.816-.408 2.081-1.684 3.313-3.223 1.096-1.371 2.177-2.925 3.11-4.31l-1.062-.53C22.192 6.338 19.237 9.062 16 9.062s-6.192-2.724-9.109-5.63zM8.71 14.68l.759 3.798c6.316.585 6.746.585 13.062 0l.76-3.796c-6.88 1.09-7.702 1.073-14.581-.002zm2.452 5.083l.835 6.675h8.006l.835-6.675c-4.235.377-5.44.377-9.676 0zm-2.6 7.8v1.25h14.876v-1.25H8.563zM1 29.875V31h30v-1.125H1z" fill="#EBEBEB" mask="url(#d)"/></g></svg>