<svg width="34" height="34" viewBox="0 0 34 34" xmlns="http://www.w3.org/2000/svg" xmlns:xlink="http://www.w3.org/1999/xlink"><title>40C1AFBE-F17A-4128-BEAF-8022499CAA22</title><defs><rect id="a" width="32" height="32" rx="16"/><filter x="-50%" y="-50%" width="200%" height="200%" filterUnits="objectBoundingBox" id="b"><feGaussianBlur stdDeviation=".5" in="SourceAlpha" result="shadowBlurInner1"/><feOffset in="shadowBlurInner1" result="shadowOffsetInner1"/><feComposite in="shadowOffsetInner1" in2="SourceAlpha" operator="arithmetic" k2="-1" k3="1" result="shadowInnerInner1"/><feColorMatrix values="0 0 0 0 0 0 0 0 0 0 0 0 0 0 0 0 0 0 0.251783288 0" in="shadowInnerInner1"/></filter><mask id="c" x="-1" y="-1" width="34" height="34"><path fill="#fff" d="M-1-1h34v34H-1z"/><use xlink:href="#a"/></mask></defs><g transform="translate(1 1)" fill="none" fill-rule="evenodd"><mask id="d" fill="#fff"><use xlink:href="#a"/></mask><use fill="#00DCBA" xlink:href="#a"/><use fill="#000" filter="url(#b)" xlink:href="#a"/><use stroke="#EBEBEB" mask="url(#c)" stroke-width="2" xlink:href="#a"/><path mask="url(#d)" d="M0 0h32v32H0z"/><path d="M33.345 4.142l-5.574 5.26 5.332 8.975.242-.3V4.141zm-32.13.077v15.248c.302.039.666.06 1.032.064.802.009 1.462-.044 1.833-.077l3.554-8.993-6.419-6.242zm26.268 7.078l-.475.307-.466.29-.715.433.01.006-.8.498-.378.234c-1.37-.736-2.855-1.302-4.59-1.747-2.18.66-4.491 1.613-6.798 2.507.958 1.154 2.022 1.53 3.094 1.543 1.244.015 2.515-.525 3.39-1.131l.5-.346.5.725 7.794 5.624 3.045-2.024-4.111-6.92zM5.475 19.23l1.124.864 2.078-2.356.167-.189.251-.015c.101-.007.201-.01.3-.01.69.005 1.305.184 1.768.592.342.302.57.704.702 1.17l.154-.01c.81-.05 1.539.116 2.067.582.528.466.785 1.17.836 1.98l.004.072c.435.082.824.253 1.14.533.53.466.786 1.169.836 1.979l.014.21c.043.014.086.029.128.045l.137-.193.37-.518.19-.267.494.353 4.011 2.857c.437-.107.697-.275.841-.478.145-.203.219-.504.178-.952l-4.81-3.445-.494-.353.35-.49.45-.632.495.353 5.423 3.863c.436-.108.696-.275.84-.479.146-.203.219-.503.178-.95L19.46 18.92l-.495-.351.703-.991.495.351 6.238 4.426c.437-.108.697-.275.842-.479.145-.203.218-.504.177-.953l-7.455-5.38c-.989.586-2.254 1.056-3.615 1.039-1.592-.02-3.295-.78-4.548-2.704a.607.607 0 0 1 .293-.9c.879-.333 1.766-.686 2.656-1.036l-6.214-.46-3.062 7.747zm3.933-.484l-3.21 3.882c.062.486.205.788.397.969.192.18.49.294.95.3l3.211-3.882c-.063-.486-.205-.788-.397-.97-.192-.18-.491-.293-.951-.299zm2.923 1.742l-3.625 4.11c.062.455.205.738.397.908.192.17.491.276.95.28l3.626-4.108c-.062-.456-.205-.74-.397-.909-.192-.17-.49-.276-.95-.28zm1.98 2.585l-3.21 3.881c.063.486.206.788.398.97.192.18.491.293.95.299l3.211-3.881c-.063-.486-.205-.789-.397-.97-.193-.18-.491-.294-.951-.3zm2.5 2.88l-2.868 3.491c.023.565.14.924.318 1.146.177.222.465.373.923.412l2.87-3.492c-.024-.565-.142-.924-.32-1.146-.176-.221-.465-.373-.922-.411z" fill="#EBEBEB" mask="url(#d)"/></g></svg>