<svg width="34" height="34" viewBox="0 0 34 34" xmlns="http://www.w3.org/2000/svg" xmlns:xlink="http://www.w3.org/1999/xlink"><title>2D7ACB6A-C250-43A2-9B18-7FF9F77C8033</title><defs><rect id="a" width="32" height="32" rx="16"/><filter x="-50%" y="-50%" width="200%" height="200%" filterUnits="objectBoundingBox" id="b"><feGaussianBlur stdDeviation=".5" in="SourceAlpha" result="shadowBlurInner1"/><feOffset in="shadowBlurInner1" result="shadowOffsetInner1"/><feComposite in="shadowOffsetInner1" in2="SourceAlpha" operator="arithmetic" k2="-1" k3="1" result="shadowInnerInner1"/><feColorMatrix values="0 0 0 0 0 0 0 0 0 0 0 0 0 0 0 0 0 0 0.251783288 0" in="shadowInnerInner1"/></filter><mask id="c" x="-1" y="-1" width="34" height="34"><path fill="#fff" d="M-1-1h34v34H-1z"/><use xlink:href="#a"/></mask></defs><g transform="translate(1 1)" fill="none" fill-rule="evenodd"><mask id="d" fill="#fff"><use xlink:href="#a"/></mask><use fill="#FF9600" xlink:href="#a"/><use fill="#000" filter="url(#b)" xlink:href="#a"/><use stroke="#EBEBEB" mask="url(#c)" stroke-width="2" xlink:href="#a"/><path fill="none" mask="url(#d)" d="M0 0h32v32H0z"/><path d="M22.61 4.267l-.268 1.36c2.986 1.091 5.058 4.775 5.058 8.992 0 4.217-2.072 7.9-5.058 8.992l.268 1.36c3.432-1.254 5.823-5.505 5.823-10.352S26.042 5.521 22.61 4.267zM18.225 6.1c-2.191 2.477-3.566 3.917-5.294 4.654-1.736.74-3.781.807-7.437.813v6.104c3.656.006 5.701.073 7.437.813 1.728.737 3.103 2.177 5.294 4.654V6.1zm3.672 1.794l-.267 1.36c1.783.651 3.018 2.848 3.018 5.365 0 2.517-1.235 4.713-3.018 5.365l.267 1.36c2.23-.815 3.783-3.577 3.783-6.725 0-3.148-1.554-5.91-3.783-6.725zm-.712 3.627l-.267 1.36c.579.212.977.92.977 1.738s-.398 1.526-.977 1.738l.267 1.36c1.025-.375 1.743-1.65 1.743-3.098s-.718-2.723-1.743-3.098zm-16.723.047H4.06c-.1 0-.166.034-.262.148-.096.115-.205.322-.298.607-.187.572-.3 1.435-.3 2.296 0 .86.113 1.724.3 2.296.093.285.202.492.298.606.096.115.162.149.262.149h.402v-6.102zm14.795 1.354v4.684c.173-.045.312-.105.4-.188.137-.129.204-.248.275-.55.072-.304.128-.821.128-1.604 0-.783-.056-1.3-.128-1.603-.071-.303-.138-.422-.275-.551-.088-.083-.227-.143-.4-.187zM5.64 19.08l1.577 8.603h3.57c-.197-.799-.67-1.786-1.204-3.001-.637-1.448-1.302-3.252-1.424-5.565-.74-.024-1.57-.033-2.519-.037z" fill="#EBEBEB" mask="url(#d)"/></g></svg>