<svg id="Layer_3" data-name="Layer 3" xmlns="http://www.w3.org/2000/svg" viewBox="0 0 235.59 235.59"><defs><style>.cls-1{fill:#fff;}</style></defs><title>progressbar_coin</title><path class="cls-1" d="M198,80.17A84.2,84.2,0,0,0,79,79h0A84.2,84.2,0,0,0,198,198h0A84.2,84.2,0,0,0,198,80.17ZM187.27,152.4c0.48,0.44,1,.84,1.4,1.29a25.79,25.79,0,0,1,.42,36l0,0-0.39.41h0a25.79,25.79,0,0,1-36.48,0l-0.09-.1q-0.26,1-.6,2a25.8,25.8,0,0,1-48.73-17,25.79,25.79,0,1,1-14-49.56c-0.24-.22-0.47-0.43-0.7-0.66h0a25.79,25.79,0,0,1,0-36.48l0.05-.07h0l0.05,0h0a25.79,25.79,0,0,1,36.32.15c0.37,0.37.72,0.75,1.06,1.13a25.79,25.79,0,1,1,49.76,13A25.79,25.79,0,1,1,187.27,152.4Z" transform="translate(-20.71 -20.71)"/><path class="cls-1" d="M221.79,55.2a117.79,117.79,0,1,0,0,166.59A117.79,117.79,0,0,0,221.79,55.2ZM208.56,208.56A99.07,99.07,0,0,1,68.46,68.46l0,0,0,0a99.07,99.07,0,0,1,140.1,140.1Z" transform="translate(-20.71 -20.71)"/></svg>