<svg id="Layer_5" data-name="Layer 5" xmlns="http://www.w3.org/2000/svg" viewBox="0 0 119.64 155.95"><defs><style>.cls-1{fill:#fff;}</style></defs><title>progressbar_brainstorm</title><g id="Layer_6" data-name="Layer 6"><path class="cls-1" d="M200.72,72.28a4.41,4.41,0,0,0-3.57-7H126.23v0a4.46,4.46,0,0,0-4.14,3.52l-1.48,3L90.13,133.25l0,0a4.42,4.42,0,0,0-.57,2.14A4.47,4.47,0,0,0,94,139.88H116.5l-34,74.83h0a4.38,4.38,0,0,0-.53,2.06,4.41,4.41,0,0,0,7.17,3.46l0,0L187,138.86a4.43,4.43,0,0,0-2.47-8.1H159.38L200.73,72.3h0Z" transform="translate(-81.94 -65.25)"/></g></svg>