<svg id="Layer_7" data-name="Layer 7" xmlns="http://www.w3.org/2000/svg" viewBox="0 0 198.09 142.43"><defs><style>.cls-1{fill:none;stroke:#fff;stroke-miterlimit:10;stroke-width:11px;}.cls-2{fill:#fff;}</style></defs><title>progressbar_pitch</title><rect class="cls-1" x="31.17" y="81.67" width="65" height="47" rx="14" ry="14"/><path class="cls-2" d="M202,69.83a25.72,25.72,0,0,0-4.32.37V70.08l-0.74.27a28.27,28.27,0,0,0-7.79,2.82l-132,47.76v0.16c-6.1,1-10.87,9.57-10.87,20.07s4.78,19.12,10.87,20.07v0.17l134,48.49a28.2,28.2,0,0,0,3.6,1.3l2.91,1.05v-0.37a25.72,25.72,0,0,0,4.32.37c23.4,0,42.38-31.88,42.38-71.22S225.45,69.83,202,69.83Zm0,131.91c-18.32,0-33.17-26.63-33.17-59.49S183.73,82.76,202,82.76s33.17,26.63,33.17,59.49S220.36,201.74,202,201.74Z" transform="translate(-46.33 -69.83)"/><path class="cls-2" d="M192.37,91.78c-10.88,8.48-18.49,27.91-18.49,50.55,0,23.18,8,43,19.29,51.14,13.78-3.69,24.35-25,24.35-50.75C217.52,116.48,206.54,94.85,192.37,91.78Z" transform="translate(-46.33 -69.83)"/></svg>