<svg id="Layer_3" data-name="Layer 3" xmlns="http://www.w3.org/2000/svg" viewBox="0 0 272 203.67"><defs><style>.cls-1{fill:#fff;}</style></defs><title>deliberate</title><path class="cls-1" d="M235.33,120.67h-102a85.25,85.25,0,0,0-85,85V207a85.25,85.25,0,0,0,85,85h45.39s18.14,1.57,23.26,18.35c1.12,3.66.34,14,.34,14,1-.82,9.95-6.93,15.33-14.83a52.49,52.49,0,0,0,7.17-17.5h10.5a85.25,85.25,0,0,0,85-85v-1.33A85.25,85.25,0,0,0,235.33,120.67Zm-102,102.67a16,16,0,1,1,16-16A16,16,0,0,1,133.33,223.33Zm51,0a16,16,0,1,1,16-16A16,16,0,0,1,184.33,223.33Zm51,0a16,16,0,1,1,16-16A16,16,0,0,1,235.33,223.33Z" transform="translate(-48.33 -120.67)"/></svg>