<svg width="34" height="34" viewBox="0 0 34 34" xmlns="http://www.w3.org/2000/svg" xmlns:xlink="http://www.w3.org/1999/xlink"><title>6B83BCD0-3F91-49B0-9657-DCF95AB5B87E</title><defs><rect id="a" width="32" height="32" rx="16"/><mask id="b" x="-1" y="-1" width="34" height="34"><path fill="#fff" d="M-1-1h34v34H-1z"/><use xlink:href="#a"/></mask></defs><g transform="translate(1 1)" fill="none" fill-rule="evenodd"><mask id="c" fill="#fff"><use xlink:href="#a"/></mask><use fill="#FFBE0F" xlink:href="#a"/><use stroke="#EBEBEB" mask="url(#b)" stroke-width="2" xlink:href="#a"/><path fill="none" mask="url(#c)" d="M0 0h32v30.72H0z"/><path d="M8.5 1.5c-1.029 0-1.955.207-2.577.505-.621.299-.86.637-.86.875s.239.576.86.875c.622.298 1.548.505 2.577.505s1.955-.207 2.577-.505c.621-.299.86-.637.86-.875s-.239-.576-.86-.875C10.455 1.707 9.529 1.5 8.5 1.5zm10 1.92c-1.029 0-1.955.207-2.577.505-.621.299-.86.637-.86.875s.239.576.86.875c.622.298 1.548.505 2.577.505.284 0 .56-.016.825-.045.27-.333.658-.606 1.095-.816a6.127 6.127 0 0 1 1.515-.479.36.36 0 0 0 .003-.04c0-.238-.24-.576-.861-.875-.622-.298-1.548-.505-2.577-.505zM5.062 4.527V4.8c0 .15.08.334.342.552.262.217.692.437 1.252.592 1.12.31 2.569.31 3.688 0 .56-.155.99-.375 1.252-.592.261-.218.341-.401.341-.552v-.273c-.114.07-.233.134-.357.194-.826.396-1.9.619-3.08.619-1.18 0-2.254-.223-3.08-.62a4.158 4.158 0 0 1-.357-.193zM23.5 5.78c-1.029 0-1.955.207-2.577.505-.621.299-.86.636-.86.875 0 .238.239.576.86.874.622.299 1.548.506 2.577.506s1.955-.207 2.577-.506c.621-.298.86-.636.86-.874 0-.239-.239-.576-.86-.875-.622-.298-1.548-.505-2.577-.505zm-8.438.667v.138a5.3 5.3 0 0 1 .518.214c.565.272 1.05.648 1.3 1.122a7.467 7.467 0 0 0 2.058.163v-.835c-.145.007-.29.011-.438.011-1.18 0-2.254-.223-3.08-.62a4.158 4.158 0 0 1-.357-.193zm-10 .001v.272c0 .15.08.334.342.552.262.217.692.437 1.252.592.427.118.902.191 1.389.22.124-.314.35-.59.636-.823a8.206 8.206 0 0 1-2.337-.28 5.055 5.055 0 0 1-1.282-.533zm7.438.812c-1.029 0-1.955.207-2.577.505-.621.299-.86.637-.86.875s.239.576.86.875c.622.298 1.548.505 2.577.505s1.955-.207 2.577-.505c.621-.299.86-.637.86-.875s-.239-.576-.86-.875c-.622-.298-1.548-.505-2.577-.505zM5.062 8.368v.272c0 .15.08.334.342.552.262.217.692.437 1.252.592.396.11.833.18 1.282.212v-.831a7.92 7.92 0 0 1-1.594-.264 5.062 5.062 0 0 1-1.282-.533zm15 .438v.274c0 .15.08.334.342.552.262.217.692.437 1.252.592 1.12.31 2.569.31 3.688 0 .56-.155.99-.375 1.252-.592.261-.218.341-.401.341-.552v-.274c-.114.07-.233.135-.357.194-.826.397-1.9.62-3.08.62-1.18 0-2.254-.223-3.08-.62a4.158 4.158 0 0 1-.358-.194zm-3 .255v.82c.59.117 1.242.158 1.875.123V9.17a8.561 8.561 0 0 1-1.875-.11zm-8 1.226v.273c0 .15.08.334.342.552.262.217.692.437 1.252.592 1.12.31 2.569.31 3.688 0 .56-.155.99-.375 1.252-.592.261-.218.341-.401.341-.552v-.273c-.114.07-.233.134-.357.194-.826.396-1.9.619-3.08.619-1.18 0-2.254-.223-3.08-.62a4.158 4.158 0 0 1-.357-.193zm-4 .001v.272c0 .15.08.334.342.552.262.217.692.437 1.252.592.396.11.833.18 1.282.212v-.831a7.92 7.92 0 0 1-1.594-.264 5.062 5.062 0 0 1-1.282-.533zm15 .44V11c0 .15.08.334.342.552.262.217.692.437 1.252.592 1.12.31 2.569.31 3.688 0 .56-.155.99-.375 1.252-.592.261-.218.341-.401.341-.552v-.272a5.06 5.06 0 0 1-1.281.533 8.389 8.389 0 0 1-4.312 0 5.06 5.06 0 0 1-1.282-.533zm-3 .253v.82c.59.117 1.242.158 1.875.123v-.833a8.561 8.561 0 0 1-1.875-.11zm-12 1.227v.272c0 .15.08.334.342.552.262.217.692.437 1.252.592.396.11.833.18 1.282.212v-.831a7.92 7.92 0 0 1-1.594-.264 5.062 5.062 0 0 1-1.282-.533zm4 0v.272c0 .15.08.334.342.552.262.217.692.437 1.252.592 1.12.31 2.569.31 3.688 0 .56-.155.99-.375 1.252-.592.261-.218.341-.401.341-.552v-.272a5.061 5.061 0 0 1-1.281.534 8.389 8.389 0 0 1-4.312 0 5.062 5.062 0 0 1-1.281-.534zm11 .44v.272c0 .15.08.334.342.552.262.217.692.437 1.252.592 1.12.31 2.569.31 3.688 0 .56-.155.99-.375 1.252-.592.261-.218.341-.401.341-.552v-.272a5.06 5.06 0 0 1-1.281.533 8.389 8.389 0 0 1-4.312 0 5.06 5.06 0 0 1-1.282-.533zm-3 .253v.82c.59.117 1.242.158 1.875.123v-.833a8.561 8.561 0 0 1-1.875-.11zm-8 1.227v.137a5.3 5.3 0 0 1 .518.214c.565.272 1.05.648 1.3 1.122 1.084.252 2.418.233 3.464-.057.56-.155.99-.375 1.252-.592.261-.218.341-.401.341-.552v-.272a5.061 5.061 0 0 1-1.281.534 8.389 8.389 0 0 1-4.312 0 5.062 5.062 0 0 1-1.281-.534zm11 .44v.272c0 .15.08.334.342.552.262.217.692.437 1.252.592 1.12.31 2.569.31 3.688 0 .56-.155.99-.375 1.252-.592.261-.218.341-.401.341-.552v-.272a5.06 5.06 0 0 1-1.281.533 8.389 8.389 0 0 1-4.312 0 5.06 5.06 0 0 1-1.282-.533zm-3 .253v.82c.59.117 1.242.158 1.875.123v-.833a8.561 8.561 0 0 1-1.875-.11zM6.5 14.94c-1.029 0-1.955.207-2.577.505-.621.299-.86.637-.86.875s.239.576.86.875c.622.298 1.548.505 2.577.505s1.955-.207 2.577-.505c.621-.299.86-.637.86-.875s-.239-.576-.86-.875c-.622-.298-1.548-.505-2.577-.505zm9.438 1.108a5.061 5.061 0 0 1-1.282.534c-1.123.31-2.413.363-3.594.158v.82c1.049.21 2.294.178 3.282-.096.56-.155.99-.375 1.252-.592.261-.218.341-.401.341-.552v-.272zm4.124.44v.272c0 .15.08.334.342.552.253.21.665.421 1.198.575a3.6 3.6 0 0 1 .818-.528c.072-.034.146-.067.222-.099a7.78 7.78 0 0 1-1.298-.239 5.06 5.06 0 0 1-1.282-.533zm6.875 0a4.34 4.34 0 0 1-.579.293c.194.018.383.044.568.075a.438.438 0 0 0 .012-.096v-.272zm-9.875.253v.817a7.256 7.256 0 0 0 1.875.128v-.835a8.561 8.561 0 0 1-1.875-.11zM25.5 17.82c-1.029 0-1.955.207-2.577.505-.621.299-.86.637-.86.875s.239.576.86.875c.622.298 1.548.505 2.577.505s1.955-.207 2.577-.505c.621-.299.86-.637.86-.875s-.239-.576-.86-.875c-.622-.298-1.548-.505-2.577-.505zm-22.438.147v.273c0 .15.08.334.342.552.262.217.692.437 1.252.592 1.12.31 2.569.31 3.688 0 .56-.155.99-.375 1.252-.592.261-.218.341-.401.341-.552v-.273c-.114.07-.233.134-.357.194-.826.396-1.9.619-3.08.619-1.18 0-2.254-.223-3.08-.62a4.158 4.158 0 0 1-.357-.193zm12.876.001a5.061 5.061 0 0 1-1.282.534c-1.123.31-2.413.363-3.594.158v.82c1.049.21 2.294.178 3.282-.096.56-.155.99-.375 1.252-.592.261-.218.341-.401.341-.552v-.272zm4.124.44v.272c0 .238.24.576.861.874l.015.007v-.747a4.63 4.63 0 0 1-.875-.406zm-17 1.48v.272c0 .15.08.334.342.552.262.217.692.437 1.252.592 1.12.31 2.569.31 3.688 0 .56-.155.99-.375 1.252-.592.261-.218.341-.401.341-.552v-.272a5.061 5.061 0 0 1-1.281.534 8.389 8.389 0 0 1-4.312 0 5.062 5.062 0 0 1-1.282-.534zm8 .692v.819c.306.062.636.106.982.127.124-.315.35-.59.637-.826a8.492 8.492 0 0 1-1.618-.12zm5.438.12c-1.029 0-1.955.207-2.577.505-.621.299-.86.637-.86.875s.239.576.86.875c.622.298 1.548.505 2.577.505s1.955-.207 2.577-.505c.621-.299.86-.637.86-.875s-.239-.576-.86-.875c-.622-.298-1.548-.505-2.577-.505zm5.563.147v.273c0 .15.08.334.341.552.262.217.692.437 1.252.592 1.12.31 2.569.31 3.688 0 .56-.155.99-.375 1.252-.592.261-.218.341-.401.341-.552v-.273c-.114.07-.233.134-.357.194-.826.396-1.9.619-3.08.619-1.18 0-2.254-.223-3.08-.62a4.158 4.158 0 0 1-.358-.193zm-19 .961v.272c0 .15.08.334.341.552.262.217.692.437 1.252.592 1.12.31 2.569.31 3.688 0 .56-.155.99-.375 1.252-.592.261-.218.341-.401.341-.552v-.272a5.061 5.061 0 0 1-1.281.534 8.389 8.389 0 0 1-4.312 0 5.062 5.062 0 0 1-1.282-.534zm19 .96v.272c0 .15.08.334.341.552.262.217.692.437 1.252.592 1.12.31 2.569.31 3.688 0 .56-.155.99-.375 1.252-.592.261-.218.341-.401.341-.552v-.272a5.061 5.061 0 0 1-1.281.534 8.389 8.389 0 0 1-4.312 0 5.062 5.062 0 0 1-1.282-.534zm-9 .959V24c0 .15.08.334.341.552.262.217.692.437 1.252.592 1.12.31 2.569.31 3.688 0 .56-.155.99-.375 1.252-.592.261-.218.341-.401.341-.552v-.273c-.114.07-.233.134-.357.194-.826.396-1.9.619-3.08.619-1.18 0-2.254-.223-3.08-.62a4.158 4.158 0 0 1-.357-.193zm-10 .001V24c0 .15.08.334.341.552.262.217.692.437 1.252.592 1.12.31 2.569.31 3.688 0 .56-.155.99-.375 1.252-.592.261-.218.341-.401.341-.552v-.272a5.061 5.061 0 0 1-1.281.534 8.389 8.389 0 0 1-4.312 0 5.062 5.062 0 0 1-1.282-.534zm19 .96v.272c0 .15.08.334.341.552.262.217.692.437 1.252.592 1.12.31 2.569.31 3.688 0 .56-.155.99-.375 1.252-.592.261-.218.341-.401.341-.552v-.272a5.061 5.061 0 0 1-1.281.534 8.389 8.389 0 0 1-4.312 0 5.062 5.062 0 0 1-1.282-.534zm-19 .96v.272c0 .15.08.334.341.552.262.217.692.437 1.252.592 1.12.31 2.569.31 3.688 0 .56-.155.99-.375 1.252-.592.261-.218.341-.401.341-.552v-.272a5.061 5.061 0 0 1-1.281.534 8.389 8.389 0 0 1-4.312 0 5.062 5.062 0 0 1-1.282-.534zm10 0v.272c0 .238.239.576.86.875.622.298 1.548.505 2.577.505s1.955-.207 2.577-.505c.621-.299.86-.637.86-.875v-.272a5.061 5.061 0 0 1-1.281.534 8.389 8.389 0 0 1-4.312 0 5.062 5.062 0 0 1-1.281-.534zm9 .96v.272c0 .238.239.576.86.875.622.298 1.548.505 2.577.505s1.955-.207 2.577-.505c.621-.299.86-.637.86-.875v-.272a5.061 5.061 0 0 1-1.281.534 8.389 8.389 0 0 1-4.312 0 5.062 5.062 0 0 1-1.282-.534zm-19 .96v.272c0 .238.239.576.86.875.622.298 1.548.505 2.577.505s1.955-.207 2.577-.505c.621-.299.86-.637.86-.875v-.272a5.061 5.061 0 0 1-1.281.534 8.389 8.389 0 0 1-4.312 0 5.062 5.062 0 0 1-1.282-.534z" fill="#EBEBEB" mask="url(#c)"/></g></svg>