<svg xmlns="http://www.w3.org/2000/svg" xmlns:xlink="http://www.w3.org/1999/xlink" width="35" height="35" viewBox="0 0 35 35">
    <defs>
        <path id="a" d="M0 0h34.314v35H0z"/>
    </defs>
    <g fill="none" fill-rule="evenodd">
        <g>
            <mask id="b" fill="#fff">
                <use xlink:href="#a"/>
            </mask>
            <path fill="#E5333C" d="M34.314 17.5c0 9.665-7.681 17.5-17.157 17.5C7.681 35 0 27.165 0 17.5S7.681 0 17.157 0c9.476 0 17.157 7.835 17.157 17.5" mask="url(#b)"/>
        </g>
        <path fill="#F85E6E" d="M17.773 21.256c-2.21.416-4.34-1.08-4.748-3.334-.409-2.254 1.057-4.427 3.268-4.844 2.21-.416 4.34 1.08 4.749 3.334.407 2.254-1.058 4.427-3.269 4.844zm10.142-6.14c1.109 6.121-2.872 12.02-8.872 13.15-6.001 1.131-11.784-2.928-12.893-9.049-1.107-6.12 2.872-12.02 8.872-13.15 2.32-.437 5.23 1.625 5.662 4.012l.258 1.421a6.673 6.673 0 0 0-5.144-1.151c-3.685.695-6.13 4.318-5.449 8.077.68 3.76 4.233 6.253 7.919 5.559 1.867-.352 3.415-1.457 4.4-2.95l.266 1.465 2.676-.504-2.258-12.465c-.735-3.906-5.009-6.911-8.824-6.193C7.053 4.747 2.094 12.096 3.475 19.72c1.381 7.625 8.586 12.684 16.062 11.275 7.476-1.408 12.434-8.758 11.054-16.383l-2.676.504z"/>
    </g>
</svg>
