<svg xmlns="http://www.w3.org/2000/svg" xmlns:xlink="http://www.w3.org/1999/xlink" width="35" height="35" viewBox="0 0 35 35">
    <defs>
        <path id="a" d="M0 0h34.314v35H0z"/>
    </defs>
    <g fill="none" fill-rule="evenodd">
        <g>
            <mask id="b" fill="#fff">
                <use xlink:href="#a"/>
            </mask>
            <path fill="#0067D8" d="M34.314 17.5c0 9.665-7.681 17.5-17.157 17.5C7.681 35 0 27.165 0 17.5S7.681 0 17.157 0c9.476 0 17.157 7.835 17.157 17.5" mask="url(#b)"/>
        </g>
        <path fill="#1BA5F6" d="M17.773 21.771c-2.21.417-4.34-1.079-4.748-3.333-.409-2.254 1.057-4.427 3.268-4.844 2.21-.416 4.34 1.08 4.749 3.334.407 2.255-1.058 4.427-3.269 4.843zm10.142-6.139c1.109 6.122-2.872 12.02-8.872 13.151-6.001 1.13-11.784-2.93-12.893-9.05-1.107-6.12 2.872-12.02 8.872-13.15 2.32-.437 5.23 1.625 5.662 4.012l.258 1.42a6.673 6.673 0 0 0-5.144-1.15c-3.685.695-6.13 4.318-5.449 8.077.68 3.76 4.233 6.254 7.919 5.558 1.867-.352 3.415-1.456 4.4-2.949l.266 1.465 2.676-.504-2.258-12.464c-.735-3.906-5.009-6.913-8.824-6.194C7.053 5.262 2.094 12.612 3.475 20.237c1.381 7.626 8.586 12.684 16.062 11.275 7.476-1.409 12.434-8.758 11.054-16.383l-2.676.503z"/>
    </g>
</svg>
