<svg xmlns="http://www.w3.org/2000/svg" width="26" height="26" viewBox="0 0 26 26">
    <g fill="none" fill-rule="evenodd" stroke="#FEFEFE">
        <path d="M15.456 9.438a6.018 6.018 0 1 1-12.037 0 6.018 6.018 0 0 1 12.037 0zM5.839 9.45a3.61 3.61 0 0 1 3.61-3.611"/>
        <path d="M17.851 9.426a8.426 8.426 0 1 1-16.85 0 8.426 8.426 0 0 1 16.85 0z"/>
        <path d="M25.079 22.57l-8.667-8.666a8.478 8.478 0 0 1-1.702 1.702l8.667 8.667a1.202 1.202 0 0 0 1.702 0c.47-.47.47-1.233 0-1.703zM18.814 17.129l-1.685 1.685"/>
    </g>
</svg>
