<svg xmlns="http://www.w3.org/2000/svg" xmlns:xlink="http://www.w3.org/1999/xlink" width="66" height="66" viewBox="0 0 66 66">
    <defs>
        <filter id="a" width="148%" height="150%" x="-24%" y="-24%" filterUnits="objectBoundingBox">
            <feOffset in="SourceAlpha" result="shadowOffsetOuter1"/>
            <feGaussianBlur in="shadowOffsetOuter1" result="shadowBlurOuter1" stdDeviation="4"/>
            <feColorMatrix in="shadowBlurOuter1" result="shadowMatrixOuter1" values="0 0 0 0 0 0 0 0 0 0 0 0 0 0 0 0 0 0 0.25 0"/>
            <feMerge>
                <feMergeNode in="shadowMatrixOuter1"/>
                <feMergeNode in="SourceGraphic"/>
            </feMerge>
        </filter>
        <path id="b" d="M0 .216h49.782v49.441H0z"/>
        <path id="d" d="M.314.036h43.011v24.622H.314z"/>
    </defs>
    <g fill="none" fill-rule="evenodd" filter="url(#a)" transform="translate(8 8)">
        <g transform="translate(0 .126)">
            <mask id="c" fill="#fff">
                <use xlink:href="#b"/>
            </mask>
            <path fill="#02826A" d="M49.782 24.937c0 13.653-11.144 24.72-24.89 24.72C11.143 49.657 0 38.59 0 24.937 0 11.284 11.144.217 24.89.217c13.747 0 24.891 11.067 24.891 24.72" mask="url(#c)"/>
        </g>
        <g transform="translate(3.103 25.126)">
            <mask id="e" fill="#fff">
                <use xlink:href="#d"/>
            </mask>
            <path fill="#E5333C" d="M21.851.036A24.842 24.842 0 0 0 .314 12.433a24.907 24.907 0 0 0 21.474 12.225c9.2 0 17.229-4.962 21.537-12.334A24.841 24.841 0 0 0 21.851.036" mask="url(#e)"/>
        </g>
        <path fill="#F7F248" d="M41.506 20.025c0 9.079-7.41 16.438-16.551 16.438-9.142 0-16.552-7.36-16.552-16.438 0-9.079 7.41-16.438 16.552-16.438 9.141 0 16.551 7.36 16.551 16.438"/>
        <path fill="#0067D8" d="M22.886 16.943c0 1.702-1.39 3.082-3.104 3.082-1.714 0-3.103-1.38-3.103-3.082s1.39-3.082 3.103-3.082c1.714 0 3.104 1.38 3.104 3.082M33.23 16.943c0 1.702-1.389 3.082-3.103 3.082-1.714 0-3.103-1.38-3.103-3.082s1.389-3.082 3.103-3.082c1.714 0 3.103 1.38 3.103 3.082"/>
        <path fill="#E5333C" d="M24.955 29.043c-2.852 0-5.173-2.304-5.173-5.137h2.07c0 1.7 1.391 3.082 3.103 3.082 1.711 0 3.103-1.382 3.103-3.082h2.069c0 2.833-2.32 5.137-5.172 5.137"/>
        <path fill="#FF6CA8" d="M16.679 22.08a2.062 2.062 0 0 1-2.07 2.055 2.062 2.062 0 0 1-2.068-2.055c0-1.135.926-2.055 2.069-2.055 1.142 0 2.069.92 2.069 2.055M37.368 22.08a2.062 2.062 0 0 1-2.069 2.055 2.062 2.062 0 0 1-2.069-2.055c0-1.135.927-2.055 2.07-2.055 1.142 0 2.068.92 2.068 2.055"/>
        <path fill="#000" d="M31.162 16.943a1.03 1.03 0 0 1-1.035 1.027 1.03 1.03 0 0 1-1.034-1.027 1.03 1.03 0 0 1 1.034-1.027c.571 0 1.035.46 1.035 1.027"/>
        <path fill="#FFF" d="M31.162 14.888a1.03 1.03 0 0 1-1.035 1.028 1.03 1.03 0 0 1-1.034-1.028 1.03 1.03 0 0 1 1.034-1.027c.571 0 1.035.46 1.035 1.027"/>
        <path fill="#000" d="M20.817 16.943a1.03 1.03 0 0 1-1.035 1.027 1.03 1.03 0 0 1-1.034-1.027 1.03 1.03 0 0 1 1.034-1.027c.572 0 1.035.46 1.035 1.027"/>
        <path fill="#FFF" d="M20.817 14.888a1.03 1.03 0 0 1-1.035 1.028 1.03 1.03 0 0 1-1.034-1.028 1.03 1.03 0 0 1 1.034-1.027c.572 0 1.035.46 1.035 1.027"/>
    </g>
</svg>
