<svg xmlns="http://www.w3.org/2000/svg" xmlns:xlink="http://www.w3.org/1999/xlink" width="66" height="66" viewBox="0 0 66 66">
    <defs>
        <filter id="a" width="148%" height="150%" x="-24%" y="-24%" filterUnits="objectBoundingBox">
            <feOffset in="SourceAlpha" result="shadowOffsetOuter1"/>
            <feGaussianBlur in="shadowOffsetOuter1" result="shadowBlurOuter1" stdDeviation="4"/>
            <feColorMatrix in="shadowBlurOuter1" result="shadowMatrixOuter1" values="0 0 0 0 0 0 0 0 0 0 0 0 0 0 0 0 0 0 0.25 0"/>
            <feMerge>
                <feMergeNode in="shadowMatrixOuter1"/>
                <feMergeNode in="SourceGraphic"/>
            </feMerge>
        </filter>
        <path id="b" d="M0 .216h49.782v49.442H0z"/>
    </defs>
    <g fill="none" fill-rule="evenodd" filter="url(#a)" transform="translate(8 8)">
        <g transform="translate(0 .126)">
            <mask id="c" fill="#fff">
                <use xlink:href="#b"/>
            </mask>
            <path fill="#0067D8" d="M49.782 24.937c0 13.653-11.144 24.72-24.89 24.72C11.143 49.658 0 38.59 0 24.938 0 11.284 11.144.217 24.89.217c13.747 0 24.891 11.067 24.891 24.72" mask="url(#c)"/>
        </g>
        <path fill="#A4050F" d="M49.544 28.481a14.581 14.581 0 0 0-12.15-6.485 14.58 14.58 0 0 0-12.47 6.992l-.692-.679a14.178 14.178 0 0 0-12.043-6.662c-5.05 0-9.478 2.628-11.987 6.578 1.563 12.16 12.02 21.558 24.689 21.558 12.579 0 22.977-9.267 24.653-21.302"/>
        <path fill="#DFCD2C" d="M21.71 18.798c0 5.035-4.11 9.116-9.18 9.116-5.069 0-9.178-4.081-9.178-9.116 0-5.035 4.11-9.116 9.179-9.116s9.179 4.081 9.179 9.116M46.495 19.064c0 5.182-4.23 9.382-9.447 9.382-5.217 0-9.447-4.2-9.447-9.382 0-5.182 4.23-9.382 9.447-9.382 5.217 0 9.447 4.2 9.447 9.382"/>
        <path fill="#E5333C" d="M6.607 41.834a24.903 24.903 0 0 0 18.284 7.95c7.33 0 13.919-3.147 18.474-8.154a21.563 21.563 0 0 0-18.317-10.133A21.561 21.561 0 0 0 6.607 41.834"/>
        <path fill="#F7F248" d="M39.416 27.038c0 7.88-6.433 14.27-14.368 14.27-7.935 0-14.368-6.39-14.368-14.27 0-7.881 6.433-14.27 14.368-14.27 7.935 0 14.368 6.389 14.368 14.27"/>
        <path fill="#0067D8" d="M23.252 24.362a2.685 2.685 0 0 1-2.694 2.675 2.685 2.685 0 0 1-2.694-2.675 2.685 2.685 0 0 1 2.694-2.675 2.685 2.685 0 0 1 2.694 2.675M32.232 24.362a2.685 2.685 0 0 1-2.694 2.675 2.685 2.685 0 0 1-2.694-2.675 2.685 2.685 0 0 1 2.694-2.675 2.685 2.685 0 0 1 2.694 2.675"/>
        <path fill="#E5333C" d="M25.048 34.866c-2.476 0-4.49-2-4.49-4.46h1.796a2.688 2.688 0 0 0 2.694 2.676c1.485 0 2.694-1.2 2.694-2.675h1.796c0 2.458-2.014 4.459-4.49 4.459"/>
        <path fill="#FF6CA8" d="M17.864 28.821a1.79 1.79 0 0 1-1.796 1.784 1.79 1.79 0 0 1-1.796-1.784 1.79 1.79 0 0 1 1.796-1.783 1.79 1.79 0 0 1 1.796 1.783M35.824 28.821a1.79 1.79 0 0 1-1.796 1.784 1.79 1.79 0 0 1-1.796-1.784 1.79 1.79 0 0 1 1.796-1.783 1.79 1.79 0 0 1 1.796 1.783"/>
        <path fill="#000" d="M30.436 24.362a.895.895 0 0 1-.898.892.895.895 0 0 1-.898-.892c0-.492.402-.892.898-.892s.898.4.898.892"/>
        <path fill="#FFF" d="M30.436 22.578a.895.895 0 0 1-.898.892.895.895 0 0 1-.898-.892c0-.492.402-.892.898-.892s.898.4.898.892"/>
        <path fill="#000" d="M21.456 24.362a.895.895 0 0 1-.898.892.895.895 0 0 1-.898-.892c0-.492.402-.892.898-.892s.898.4.898.892"/>
        <path fill="#FFF" d="M21.456 22.578a.895.895 0 0 1-.898.892.895.895 0 0 1-.898-.892c0-.492.402-.892.898-.892s.898.4.898.892"/>
    </g>
</svg>
